<svg xmlns="http://www.w3.org/2000/svg" xmlns:svg="http://www.w3.org/2000/svg" id="svg4" version="1.1" viewBox="0 0 48 48"><metadata id="metadata10"/><path style="fill:none;stroke:#000;stroke-width:2;stroke-linejoin:round;stroke-miterlimit:4;stroke-dasharray:none;stroke-opacity:1" id="path2-3" d="m 4.0001,27.9999 h 4 L 8,31.841 C 7.9999615,33.3201 8.6792,34 10.159,34 h 31.68 C 43.309,34 44,33.3203 44,31.841 V 16.169 C 44,14.6997 43.31,14.000052 41.83,14 L 10.159526,13.9999 C 8.6797254,14.0099 8.0003,14.6899 8,16.169 v 3.8309 H 4 Z"/><path id="path2" fill="#a89a8c" d="m4.0001 27.9999h4v3.332c0 1.4791 1.1882 2.668 2.668 2.668h30.662c1.47 0 2.6699-1.1887 2.6699-2.668v-14.664c0-1.4693-1.1899-2.668-2.6699-2.668h-2.3301v.002l-28.332-.002c-1.4798.01-2.6677 1.1986-2.668 2.6777v3.3223h-4zm10-6h11v-4l15 8h-11v4z"/></svg>