<svg xmlns="http://www.w3.org/2000/svg" xmlns:svg="http://www.w3.org/2000/svg" id="svg94" width="42" height="107" version="1.1"><metadata id="metadata100"/><path style="color:#000;fill:#050505;stroke-width:.99979782" id="path4" d="m 9,57.500804 h 8 V 58.5004 H 9 Z"/><path style="color:#000;fill:#050505;stroke-width:.99979782" id="path6" d="m 9,67.500956 h 8 v 0.999596 H 9 Z"/><path style="color:#000;fill:#050505;stroke-width:.99979782" id="path8" d="m 9,77.500705 h 8 v 0.999596 H 9 Z"/><path style="color:#000;fill:#050505;stroke-width:.99979782" id="path10" d="m 9,87.500454 h 8 V 88.50005 H 9 Z"/><path style="color:#000;fill:#050505;stroke-width:.99979782" id="path12" d="m 9,17.499953 h 8 v 0.999596 H 9 Z"/><path style="color:#000;fill:#050505;stroke-width:.99979782" id="path14" d="m 9,27.501559 h 8 v 0.999596 H 9 Z"/><path style="color:#000;fill:#050505;stroke-width:.99979782" id="path16" d="m 9,37.501307 h 8 v 0.999596 H 9 Z"/><path style="color:#000;fill:#050505;stroke-width:.99979782" id="path18" d="m 9,47.501055 h 8 v 0.999596 H 9 Z"/><path style="color:#000;fill:#050505;stroke-width:.99979782" id="path20" d="m 8,7.500404 9,-2.025e-4 v 0.999596 L 8,8.5 Z"/><path style="color:#000;fill:#050505;stroke-width:.99979782" id="path22" d="m 8,97.500405 9,-2.03e-4 v 0.999595 L 8,98.5 Z"/><path style="color:#000;fill:#050505;stroke-width:.99979782" id="path24" d="m 25,57.500804 8,2.53e-4 v 0.999596 L 25,58.5004 Z"/><path style="color:#000;fill:#050505;stroke-width:.99979782" id="path26" d="m 25,67.500956 8,2.53e-4 v 0.999596 l -8,-2.53e-4 z"/><path style="color:#000;fill:#050505;stroke-width:.99979782" id="path28" d="m 25,77.500705 8,2.53e-4 v 0.999596 l -8,-2.53e-4 z"/><path style="color:#000;fill:#050505;stroke-width:.99979782" id="path30" d="m 25,87.500454 8,2.52e-4 v 0.999596 l -8,-2.52e-4 z"/><path style="color:#000;fill:#050505;stroke-width:.99979782" id="path32" d="m 25,17.499953 8,2.52e-4 v 0.999596 l -8,-2.52e-4 z"/><path style="color:#000;fill:#050505;stroke-width:.99979782" id="path34" d="m 25,27.501559 8,2.53e-4 v 0.999596 l -8,-2.53e-4 z"/><path style="color:#000;fill:#050505;stroke-width:.99979782" id="path36" d="m 25,37.501307 8,2.53e-4 v 0.999596 l -8,-2.53e-4 z"/><path style="color:#000;fill:#050505;stroke-width:.99979782" id="path38" d="m 25,47.501055 8,2.53e-4 v 0.999596 l -8,-2.53e-4 z"/><path id="path42" d="m 9,58.000552 h 8 v 0.999596 H 9 Z" style="color:#000;fill:#404040;stroke-width:.99979782"/><path id="path44" d="m 9,68.000704 h 8 V 69.0003 H 9 Z" style="color:#000;fill:#404040;stroke-width:.99979782"/><path id="path46" d="m 9,78.000453 h 8 v 0.999596 H 9 Z" style="color:#000;fill:#404040;stroke-width:.99979782"/><path id="path48" d="m 9,88.000202 h 8 v 0.999596 H 9 Z" style="color:#000;fill:#404040;stroke-width:.99979782"/><path id="path50" d="m 9,17.999701 h 8 v 0.999596 H 9 Z" style="color:#000;fill:#404040;stroke-width:.99979782"/><path id="path52" d="m 9,28.001307 h 8 v 0.999596 H 9 Z" style="color:#000;fill:#404040;stroke-width:.99979782"/><path id="path54" d="m 9,38.001055 h 8 v 0.999596 H 9 Z" style="color:#000;fill:#404040;stroke-width:.99979782"/><path id="path56" d="m 9,48.000803 h 8 v 0.999596 H 9 Z" style="color:#000;fill:#404040;stroke-width:.99979782"/><path id="path58" d="m 25,58.000552 8,2.53e-4 v 0.999596 l -8,-2.53e-4 z" style="color:#000;fill:#404040;stroke-width:.99979782"/><path id="path60" d="m 25,68.000704 8,2.03e-4 v 0.999596 L 25,69.0003 Z" style="color:#000;fill:#404040;stroke-width:.99979782"/><path id="path62" d="m 25,78.000453 8,2.03e-4 v 0.999596 l -8,-2.03e-4 z" style="color:#000;fill:#404040;stroke-width:.99979782"/><path id="path64" d="m 25,88.000202 8,2.02e-4 V 89 l -8,-2.02e-4 z" style="color:#000;fill:#404040;stroke-width:.99979782"/><path id="path66" d="m 25,17.999701 8,2.02e-4 v 0.999596 l -8,-2.02e-4 z" style="color:#000;fill:#404040;stroke-width:.99979782"/><path id="path68" d="m 25,28.001307 8,2.03e-4 v 0.999596 l -8,-2.03e-4 z" style="color:#000;fill:#404040;stroke-width:.99979782"/><path id="path70" d="m 25,38.001055 8,2.03e-4 v 0.999596 l -8,-2.03e-4 z" style="color:#000;fill:#404040;stroke-width:.99979782"/><path id="path72" d="m 25,48.000803 8,2.03e-4 v 0.999596 l -8,-2.03e-4 z" style="color:#000;fill:#404040;stroke-width:.99979782"/><path style="color:#000;fill:#050505;stroke-width:.99979782" id="path76" d="m 25,7.4999495 9,2.525e-4 v 0.999596 l -9,-2.525e-4 z"/><path style="color:#000;fill:#050505;stroke-width:.99979782" id="path78" d="m 25,97.49995 9,2.52e-4 v 0.999596 l -9,-2.53e-4 z"/><path style="color:#000;fill:#505050;stroke-width:.99979782" id="path84" d="m 8,8.000404 9,-2.025e-4 v 0.999596 L 8,9 Z"/><path style="color:#000;fill:#505050;stroke-width:.99979782" id="path86" d="m 8,98.000405 9,-2.03e-4 v 0.999595 L 8,99 Z"/><path style="color:#000;fill:#505050;stroke-width:.99979788" id="path88" d="m 25,8.0002015 9,2.025e-4 V 9 l -9,-2.025e-4 z"/><path style="color:#000;fill:#505050;stroke-width:.99979788" id="path90" d="m 25,98.000202 9,2.02e-4 V 99 l -9,-2.03e-4 z"/><path style="color:#000;fill:#000;fill-opacity:1;stroke:#000;stroke-width:1.61044729;stroke-linejoin:round;stroke-miterlimit:4;stroke-dasharray:none;stroke-opacity:1" id="path80" d="m 20.305224,7.3052273 h 1.389553 V 99.69478 h -1.389553 z"/></svg>