<svg xmlns="http://www.w3.org/2000/svg" xmlns:svg="http://www.w3.org/2000/svg" id="svg84" width="40" height="113" version="1.1"><metadata id="metadata90"/><rect id="rect852" width="166.627" height="219.775" x="-202.538" y="-55.064" style="opacity:1;fill:#146674;fill-opacity:.55555558;stroke:none;stroke-width:1.5;stroke-linecap:butt;stroke-linejoin:round;stroke-miterlimit:4;stroke-dasharray:none;stroke-opacity:1"/><g style="fill:#050505;stroke-width:.99979782" id="g38" transform="translate(1)"><path style="color:#000" id="path2" d="m 8,20.500564 h 8 V 21.50016 H 8 Z"/><path style="color:#000" id="path4" d="m 8,32.500511 h 8 v 0.999596 H 8 Z"/><path style="color:#000" id="path6" d="m 8,44.500457 h 8 v 0.999596 H 8 Z"/><path style="color:#000" id="path8" d="m 5,56.500202 11,2.02e-4 V 57.5 L 5,57.499798 Z"/><path style="color:#000" id="path10" d="m 8,68.500361 h 8 v 0.999596 H 8 Z"/><path style="color:#000" id="path12" d="m 8,80.500308 h 8 v 0.999596 H 8 Z"/><path style="color:#000" id="path14" d="m 8,92.500254 h 8 V 93.49985 H 8 Z"/><path style="color:#000" id="path16" d="m 32,20.500564 h -8 v 0.999596 h 8 z"/><path style="color:#000" id="path18" d="m 32,32.500511 h -8 v 0.999596 h 8 z"/><path style="color:#000" id="path20" d="m 32,44.500457 h -8 v 0.999596 h 8 z"/><path style="color:#000" id="path22" d="M 34,56.500404 H 24 V 57.5 h 10 z"/><path style="color:#000" id="path24" d="m 32,68.500361 h -8 v 0.999596 h 8 z"/><path style="color:#000" id="path26" d="m 32,80.500308 h -8 v 0.999596 h 8 z"/><path style="color:#000" id="path28" d="m 32,92.500254 h -8 v 0.999596 h 8 z"/><path style="color:#000" id="path30" d="m 8,6.500564 h 8 V 7.50016 H 8 Z"/><path style="color:#000" id="path32" d="M 32,6.500564 H 24 V 7.50016 h 8 z"/><path style="color:#000" id="path34" d="m 8,104.50025 h 8 v 0.9996 H 8 Z"/><path style="color:#000" id="path36" d="m 32,104.50025 h -8 v 0.9996 h 8 z"/></g><g style="fill:#636363;stroke-width:.99979782" id="g44" transform="translate(1)"><path style="color:#000" id="path40" d="M 5,57.000404 H 16 V 58 H 5 Z"/><path style="color:#000" id="path42" d="M 34,57.000404 H 24 V 58 h 10 z"/></g><g style="fill:#404040;stroke-width:.99979782" id="g78" transform="translate(1)"><path style="color:#000" id="path46" d="m 8,21.000564 h 8 V 22.00016 H 8 Z"/><path style="color:#000" id="path48" d="m 8,33.000511 h 8 v 0.999596 H 8 Z"/><path style="color:#000" id="path50" d="m 8,45.000457 h 8 v 0.999596 H 8 Z"/><path style="color:#000" id="path52" d="m 8,69.000361 h 8 v 0.999596 H 8 Z"/><path style="color:#000" id="path54" d="m 8,81.000308 h 8 v 0.999596 H 8 Z"/><path style="color:#000" id="path56" d="m 8,93.000254 h 8 V 93.99985 H 8 Z"/><path style="color:#000" id="path58" d="m 32,21.000564 h -8 v 0.999596 h 8 z"/><path style="color:#000" id="path60" d="m 32,33.000511 h -8 v 0.999596 h 8 z"/><path style="color:#000" id="path62" d="m 32,45.000457 h -8 v 0.999596 h 8 z"/><path style="color:#000" id="path64" d="m 32,69.000361 h -8 v 0.999596 h 8 z"/><path style="color:#000" id="path66" d="m 32,81.000308 h -8 v 0.999596 h 8 z"/><path style="color:#000" id="path68" d="m 32,93.000254 h -8 v 0.999596 h 8 z"/><path style="color:#000" id="path70" d="m 8,7.000564 h 8 V 8.00016 H 8 Z"/><path style="color:#000" id="path72" d="M 32,7.000564 H 24 V 8.00016 h 8 z"/><path style="color:#000" id="path74" d="m 8,105.00025 h 8 v 0.9996 H 8 Z"/><path style="color:#000" id="path76" d="m 32,105.00025 h -8 v 0.9996 h 8 z"/></g><path id="path80" d="m 20.326337,6.3263365 h 1.347327 V 106.67366 h -1.347327 z" style="color:#000;fill:#000;fill-opacity:1;stroke:#000;stroke-width:1.65267289;stroke-linejoin:round;stroke-miterlimit:4;stroke-dasharray:none;stroke-opacity:1"/></svg>