<svg xmlns="http://www.w3.org/2000/svg" xmlns:svg="http://www.w3.org/2000/svg" id="svg84" width="40" height="79" version="1.1"><metadata id="metadata90"/><path style="color:#000;fill:#050505;stroke-width:.99979782" id="path4" d="m 9,6.5004044 h 8 v 0.999596 H 9 Z"/><path style="color:#000;fill:#050505;stroke-width:.99979782" id="path8" d="m 6,38.500202 11,2.02e-4 V 39.5 L 6,39.499798 Z"/><path style="color:#000;fill:#050505;stroke-width:.99979782" id="path10" d="m 9,46.500404 h 8 V 47.5 H 9 Z"/><path style="color:#000;fill:#050505;stroke-width:.99979782" id="path12" d="m 9,54.500404 h 8 V 55.5 H 9 Z"/><path style="color:#000;fill:#050505;stroke-width:.99979782" id="path14" d="m 9,62.500404 h 8 V 63.5 H 9 Z"/><path style="color:#000;fill:#050505;stroke-width:.99979782" id="path22" d="M 35,38.500404 H 25 V 39.5 h 10 z"/><path style="color:#000;fill:#050505;stroke-width:.99979782" id="path24" d="M 33,46.500404 H 25 V 47.5 h 8 z"/><path style="color:#000;fill:#050505;stroke-width:.99979782" id="path26" d="M 33,54.500404 H 25 V 55.5 h 8 z"/><path style="color:#000;fill:#050505;stroke-width:.99979782" id="path28" d="M 33,62.500404 H 25 V 63.5 h 8 z"/><path style="color:#000;fill:#050505;stroke-width:.99979782" id="path34" d="m 9,70.500254 h 8 v 0.9996 H 9 Z"/><path style="color:#000;fill:#050505;stroke-width:.99979782" id="path36" d="m 33,70.500254 h -8 v 0.9996 h 8 z"/><g id="g44" transform="translate(1,-18.000072)" style="fill:#636363;stroke-width:.99979782"><path id="path40" d="m 5,57.000274 11,1.3e-4 V 58 L 5,57.99987 Z" style="color:#000"/><path id="path42" d="M 34,57.000404 H 24 V 58 h 10 z" style="color:#000"/></g><path style="color:#000;fill:#404040;stroke-width:.99979782" id="path48" d="m 9,7.0004044 h 8 v 0.999596 H 9 Z"/><path style="color:#000;fill:#404040;stroke-width:.99979782" id="path52" d="m 9,47.000312 h 8 v 0.999596 H 9 Z"/><path style="color:#000;fill:#404040;stroke-width:.99979782" id="path54" d="m 9,55.000294 h 8 V 55.99989 H 9 Z"/><path style="color:#000;fill:#404040;stroke-width:.99979782" id="path56" d="m 9,63.000276 h 8 v 0.999596 H 9 Z"/><path style="color:#000;fill:#404040;stroke-width:.99979782" id="path64" d="M 33,47.000404 H 25 V 48 h 8 z"/><path style="color:#000;fill:#404040;stroke-width:.99979782" id="path66" d="M 33,55.000404 H 25 V 56 h 8 z"/><path style="color:#000;fill:#404040;stroke-width:.99979782" id="path68" d="M 33,63.000404 H 25 V 64 h 8 z"/><path style="color:#000;fill:#404040;stroke-width:.99979782" id="path74" d="m 9,71.000254 h 8 v 0.9996 H 9 Z"/><path style="color:#000;fill:#404040;stroke-width:.99979782" id="path76" d="m 33,71.000254 h -8 v 0.9996 h 8 z"/><path style="color:#000;fill:#000;fill-opacity:1;stroke:#000;stroke-width:1.44564319;stroke-linejoin:round;stroke-miterlimit:4;stroke-dasharray:none;stroke-opacity:1" id="path80" d="m 20.222823,6.222822 h 1.554355 v 66.554356 h -1.554355 z"/><path style="color:#000;fill:#050505;stroke-width:.99979782" id="path10-3" d="m 9,14.500404 h 8 V 15.5 H 9 Z"/><path style="color:#000;fill:#050505;stroke-width:.99979782" id="path12-6" d="m 9,22.50048 h 8 v 0.999596 H 9 Z"/><path style="color:#000;fill:#050505;stroke-width:.99979782" id="path14-7" d="m 9,30.500404 h 8 V 31.5 H 9 Z"/><path style="color:#000;fill:#404040;stroke-width:.99979782" id="path52-6" d="m 9,15.000385 h 8 v 0.999596 H 9 Z"/><path style="color:#000;fill:#404040;stroke-width:.99979782" id="path54-2" d="m 9,23.000366 h 8 v 0.999596 H 9 Z"/><path style="color:#000;fill:#404040;stroke-width:.99979782" id="path56-9" d="m 9,31.000351 h 8 v 0.999596 H 9 Z"/><path style="color:#000;fill:#050505;stroke-width:.99979782" id="path4-0" d="m 25,6.5004044 h 8 v 0.999596 h -8 z"/><path style="color:#000;fill:#404040;stroke-width:.99979782" id="path48-9" d="m 25,7.0004044 h 8 v 0.999596 h -8 z"/><path style="color:#000;fill:#050505;stroke-width:.99979782" id="path10-3-3" d="m 25,14.500404 h 8 V 15.5 h -8 z"/><path style="color:#000;fill:#050505;stroke-width:.99979782" id="path12-6-6" d="m 25,22.50048 h 8 v 0.999596 h -8 z"/><path style="color:#000;fill:#050505;stroke-width:.99979782" id="path14-7-0" d="m 25,30.500404 h 8 V 31.5 h -8 z"/><path style="color:#000;fill:#404040;stroke-width:.99979782" id="path52-6-6" d="m 25,15.000385 h 8 v 0.999596 h -8 z"/><path style="color:#000;fill:#404040;stroke-width:.99979782" id="path54-2-2" d="m 25,23.000366 h 8 v 0.999596 h -8 z"/><path style="color:#000;fill:#404040;stroke-width:.99979782" id="path56-9-6" d="m 25,31.000351 h 8 v 0.999596 h -8 z"/></svg>