<svg xmlns="http://www.w3.org/2000/svg" xmlns:svg="http://www.w3.org/2000/svg" xmlns:xlink="http://www.w3.org/1999/xlink" id="svg3248" width="59" height="5" version="1.1"><metadata id="metadata8"/><g id="g1237" transform="translate(-1,-1)"><rect id="use850" width="1" height="1" x="1" y="5" style="opacity:1;fill:#333;fill-opacity:1;stroke:none;stroke-width:.71554178;stroke-linejoin:round;stroke-miterlimit:4;stroke-dasharray:none;stroke-opacity:1"/><rect id="use850-5" width="1" height="1" x="1" y="1" style="opacity:1;fill:#555;fill-opacity:1;stroke:none;stroke-width:.71554178;stroke-linejoin:round;stroke-miterlimit:4;stroke-dasharray:none;stroke-opacity:1"/><rect id="use850-2" width="1" height="3" x="1" y="2" style="opacity:1;fill:#3f3f3f;fill-opacity:1;stroke:none;stroke-width:1.23935473;stroke-linejoin:round;stroke-miterlimit:4;stroke-dasharray:none;stroke-opacity:1"/></g><use id="use1239" width="100%" height="100%" x="0" y="0" xlink:href="#g1237"/><use id="use1241" width="100%" height="100%" x="0" y="0" transform="translate(2)" xlink:href="#g1237"/><use id="use1243" width="100%" height="100%" x="0" y="0" transform="translate(4)" xlink:href="#g1237"/><use id="use1245" width="100%" height="100%" x="0" y="0" transform="translate(6)" xlink:href="#g1237"/><use id="use1247" width="100%" height="100%" x="0" y="0" transform="translate(8)" xlink:href="#g1237"/><use id="use1249" width="100%" height="100%" x="0" y="0" transform="translate(10)" xlink:href="#g1237"/><use id="use1251" width="100%" height="100%" x="0" y="0" transform="translate(12)" xlink:href="#g1237"/><use id="use1253" width="100%" height="100%" x="0" y="0" transform="translate(14)" xlink:href="#g1237"/><use id="use1255" width="100%" height="100%" x="0" y="0" transform="translate(16)" xlink:href="#g1237"/><use id="use1257" width="100%" height="100%" x="0" y="0" transform="translate(18)" xlink:href="#g1237"/><use id="use1259" width="100%" height="100%" x="0" y="0" transform="translate(20)" xlink:href="#g1237"/><use id="use1261" width="100%" height="100%" x="0" y="0" transform="translate(22)" xlink:href="#g1237"/><use id="use1263" width="100%" height="100%" x="0" y="0" transform="translate(24)" xlink:href="#g1237"/><use id="use1265" width="100%" height="100%" x="0" y="0" transform="translate(26)" xlink:href="#g1237"/><use id="use1267" width="100%" height="100%" x="0" y="0" transform="translate(28)" xlink:href="#g1237"/><use id="use1269" width="100%" height="100%" x="0" y="0" transform="translate(30)" xlink:href="#g1237"/><use id="use1271" width="100%" height="100%" x="0" y="0" transform="translate(32)" xlink:href="#g1237"/><use id="use1273" width="100%" height="100%" x="0" y="0" transform="translate(34)" xlink:href="#g1237"/><use id="use1275" width="100%" height="100%" x="0" y="0" transform="translate(36)" xlink:href="#g1237"/><use id="use1277" width="100%" height="100%" x="0" y="0" transform="translate(38)" xlink:href="#g1237"/><use id="use1279" width="100%" height="100%" x="0" y="0" transform="translate(40)" xlink:href="#g1237"/><use id="use1281" width="100%" height="100%" x="0" y="0" transform="translate(42)" xlink:href="#g1237"/><use id="use1283" width="100%" height="100%" x="0" y="0" transform="translate(44)" xlink:href="#g1237"/><use id="use1285" width="100%" height="100%" x="0" y="0" transform="translate(46)" xlink:href="#g1237"/><use id="use1287" width="100%" height="100%" x="0" y="0" transform="translate(48)" xlink:href="#g1237"/><use id="use1289" width="100%" height="100%" x="0" y="0" transform="translate(50)" xlink:href="#g1237"/><use id="use1291" width="100%" height="100%" x="0" y="0" transform="translate(52)" xlink:href="#g1237"/><use id="use1293" width="100%" height="100%" x="0" y="0" transform="translate(54)" xlink:href="#g1237"/><use id="use1295" width="100%" height="100%" x="0" y="0" transform="translate(56)" xlink:href="#g1237"/><use id="use1297" width="100%" height="100%" x="0" y="0" transform="translate(58)" xlink:href="#g1237"/></svg>