<svg xmlns="http://www.w3.org/2000/svg" xmlns:svg="http://www.w3.org/2000/svg" id="svg22" width="42" height="19" version="1.1"><metadata id="metadata28"/><path style="color:#000;opacity:.15" id="path2-3" d="m 4.794,16.14832 c 0.60561,0.57244 1.4882,0.85239 2.062,0.85238 L 36.5132,17 c 1.4154,3.5e-4 2.7757,-1.0248 2.9852,-2.6991 C 39.50945,16.438 39.07291,18 37.1678,18 H 7.3566 C 6.2684,18 5.0074,17.37026 4.7941,16.1483 Z"/><path style="color:#000;opacity:.5" id="path4-6" d="m 4.294,15.18332 c 0.69268,0.64195 1.4882,0.81723 2.062,0.81722 l 29.5552,-7e-4 c 2.1018,-5e-5 3.1018,-1.6525 3.1018,-2.9996 v -5 c 0,-0.57381 -0.1985,-1.2921 -0.58032,-1.7777 0.86256,0.52578 1.0808,1.6891 1.0808,2.7773 v 5 c 0,1.662 -1.338,3 -3,3 H 6.85628 c -1.0882,0 -2.5339,-0.85452 -2.5625,-1.8165 z"/><path style="color:#000;opacity:.8" id="path6-7" d="m 3.356,8.00102 v 5 c 0,1.662 1.338,3 3,3 l 29.6572,0 c 1.662,0 3,-1.338 3,-3 v -5 c 0,-1.662 -1.338,-3 -3,-3 l -29.6572,0 c -1.662,0 -3,1.338 -3,3 z"/><path style="color:#000;fill:#444" id="path8-5" d="m 2.9998,7.00072 c 0,-1.662 1.338,-3 3,-3 L 36,4.000645 c 0.831,-2.1e-6 1.5828,0.33275 2.125,0.875 l -1.125,1.125 -32.0002,7.0001 -1.125,1.125 c -0.54225,-0.54225 -0.875,-1.294 -0.875,-2.125 z"/><path style="color:#000;fill:#1a1a1a" id="path10-3" d="m 3.8748,14.12532 1.125,-1.125 L 37,6.00022 38.125,4.87522 C 38.66725,5.41747 39,6.16922 39,7.00022 v 5 c 0,1.662 -1.338,3 -3,3 l -30.0002,7.5e-5 c -0.831,2e-6 -1.5828,-0.33275 -2.125,-0.875 z"/><path style="color:#000;fill:#262626;fill-opacity:1" id="path12-5" d="m 3.9998,7.00072 v 5 c 0,1.108 0.892,2 2,2 L 36,14.000645 c 1.108,-3e-6 2,-0.892 2,-2 v -5 c 0,-1.108 -0.892,-2 -2,-2 L 5.9998,5.00072 c -1.108,2.8e-6 -2,0.892 -2,2 z"/><path style="color:#000;fill:#b40000;fill-opacity:1" id="path14-6" d="m 3.9998,9.000075 v 1 L 38,10 V 9 Z"/><path style="color:#000;fill:#ea0000" id="path18-9" d="m 3.9998,10.000075 v 1 L 38,11 v -1 z"/><path style="color:#000;fill:#690000;fill-opacity:1" id="path20" d="m 3.9998,7.999555 v 1 L 38,8.99948 v -1 z"/></svg>