<svg xmlns="http://www.w3.org/2000/svg" xmlns:svg="http://www.w3.org/2000/svg" id="svg46" width="115" height="40" version="1.1"><metadata id="metadata52"/><path id="path2" d="m 57.999797,23 -2e-4,9 h -0.999596 l 2e-4,-9 z" style="color:#000;fill:#050505;stroke-width:.99979782"/><path id="path4" d="m 57.999797,5 -2e-4,9 h -0.999596 l 2e-4,-9 z" style="color:#000;fill:#050505;stroke-width:.99979782"/><path id="path6" d="m 7.999796,23 -2e-4,9 H 7 l 2e-4,-9 z" style="color:#000;fill:#050505;stroke-width:.99979782"/><path id="path8" d="m 7.999796,5 -2e-4,9 H 7 l 2e-4,-9 z" style="color:#000;fill:#050505;stroke-width:.99979782"/><path id="path10" d="m 107.9998,23 -2e-4,9 H 107 l 2e-4,-9 z" style="color:#000;fill:#050505;stroke-width:.99979782"/><path id="path12" d="m 107.9998,5 -2e-4,9 H 107 l 2e-4,-9 z" style="color:#000;fill:#050505;stroke-width:.99979782"/><path id="path14" d="m 44.999797,23 2e-6,7 h -0.999596 l -2e-6,-7 z" style="color:#000;fill:#050505;stroke-width:.99979782"/><path id="path16" d="m 44.999999,7 -4.02e-4,7 h -0.999596 l 4.02e-4,-7 z" style="color:#000;fill:#050505;stroke-width:.99979782"/><path id="path18" d="m 70.999797,23 2e-6,7 h -0.999596 l -2e-6,-7 z" style="color:#000;fill:#050505;stroke-width:.99979782"/><path id="path20" d="m 70.999999,7 -4.02e-4,7 h -0.999596 l 4.02e-4,-7 z" style="color:#000;fill:#050505;stroke-width:.99979782"/><path id="path22" d="m 57.999898,6 -2e-4,9 h -0.999596 l 2e-4,-9 z" style="color:#000;fill:#636363;stroke-width:.99979782"/><path id="path24" d="m 57.999597,33 2e-4,-9 h -0.999596 l -2e-4,9 z" style="color:#000;fill:#636363;stroke-width:.99979782"/><path id="path26" d="m 7.999796,6 -2e-4,9 H 7 l 2e-4,-9 z" style="color:#000;fill:#4b4b4b;stroke-width:.99979782"/><path id="path28" d="m 7.999596,33 2e-4,-9 H 7.0002 L 7,33 Z" style="color:#000;fill:#4b4b4b;stroke-width:.99979782"/><path id="path30" d="m 107.9998,6 -2e-4,9 H 107 l 2e-4,-9 z" style="color:#000;fill:#4b4b4b;stroke-width:.99979782"/><path id="path32" d="m 107.9996,33 2e-4,-9 h -0.9996 L 107,33 Z" style="color:#000;fill:#4b4b4b;stroke-width:.99979782"/><path id="path34" d="m 44.999999,8 -4.02e-4,7 h -0.999596 l 4.02e-4,-7 z" style="color:#000;fill:#4b4b4b;stroke-width:.99979782"/><path id="path36" d="m 44.999799,31 -2e-6,-7 h -0.999596 l 2e-6,7 z" style="color:#000;fill:#4b4b4b;stroke-width:.99979782"/><path id="path38" d="m 70.999999,8 -4.02e-4,7 h -0.999596 l 4.02e-4,-7 z" style="color:#000;fill:#4b4b4b;stroke-width:.99979782"/><path id="path40" d="m 70.999799,31 -2e-6,-7 h -0.999596 l 2e-6,7 z" style="color:#000;fill:#4b4b4b;stroke-width:.99979782"/><path id="path42" d="m 108,17 v 4 H 7 v -4 z" style="color:#000;fill:#000;fill-opacity:1;stroke:none;stroke-width:1.65253747;stroke-linejoin:round;stroke-miterlimit:4;stroke-dasharray:none;stroke-opacity:1"/><path id="path26-3" d="m 6,16 v 6 h 103 v -6 z m 1,1 h 101 v 4 H 7 Z" style="fill:#4b4b4b;paint-order:fill markers stroke"/></svg>