<svg xmlns="http://www.w3.org/2000/svg" xmlns:svg="http://www.w3.org/2000/svg" id="svg84" width="40" height="113" version="1.1"><metadata id="metadata90"/><g id="g38" fill="#050505" stroke-width="1"><path id="path2" d="m8 20.500564h8v.999596h-8z" color="#000"/><path id="path4" d="m8 32.500511h8v.999596h-8z" color="#000"/><path id="path6" d="m8 44.500457h8v.999596h-8z" color="#000"/><path id="path8" d="m6 56.500404h10v.999596h-10z" color="#000"/><path id="path10" d="m8 68.500361h8v.999596h-8z" color="#000"/><path id="path12" d="m8 80.500308h8v.999596h-8z" color="#000"/><path id="path14" d="m8 92.500254h8v.999596h-8z" color="#000"/><path id="path16" d="m32 20.500564h-8v.999596h8z" color="#000"/><path id="path18" d="m32 32.500511h-8v.999596h8z" color="#000"/><path id="path20" d="m32 44.500457h-8v.999596h8z" color="#000"/><path id="path22" d="m34 56.500404h-10v.999596h10z" color="#000"/><path id="path24" d="m32 68.500361h-8v.999596h8z" color="#000"/><path id="path26" d="m32 80.500308h-8v.999596h8z" color="#000"/><path id="path28" d="m32 92.500254h-8v.999596h8z" color="#000"/><path id="path30" d="m8 6.500564h8v.999596h-8z" color="#000"/><path id="path32" d="m32 6.500564h-8v.999596h8z" color="#000"/><path id="path34" d="m8 104.50025h8v.9996h-8z" color="#000"/><path id="path36" d="m32 104.50025h-8v.9996h8z" color="#000"/></g><g id="g44" fill="#636363" stroke-width="1"><path id="path40" d="m6 57.000404h10v.999596h-10z" color="#000"/><path id="path42" d="m34 57.000404h-10v.999596h10z" color="#000"/></g><g id="g78" fill="#404040" stroke-width="1"><path id="path46" d="m8 21.000564h8v.999596h-8z" color="#000"/><path id="path48" d="m8 33.000511h8v.999596h-8z" color="#000"/><path id="path50" d="m8 45.000457h8v.999596h-8z" color="#000"/><path id="path52" d="m8 69.000361h8v.999596h-8z" color="#000"/><path id="path54" d="m8 81.000308h8v.999596h-8z" color="#000"/><path id="path56" d="m8 93.000254h8v.999596h-8z" color="#000"/><path id="path58" d="m32 21.000564h-8v.999596h8z" color="#000"/><path id="path60" d="m32 33.000511h-8v.999596h8z" color="#000"/><path id="path62" d="m32 45.000457h-8v.999596h8z" color="#000"/><path id="path64" d="m32 69.000361h-8v.999596h8z" color="#000"/><path id="path66" d="m32 81.000308h-8v.999596h8z" color="#000"/><path id="path68" d="m32 93.000254h-8v.999596h8z" color="#000"/><path id="path70" d="m8 7.000564h8v.999596h-8z" color="#000"/><path id="path72" d="m32 7.000564h-8v.999596h8z" color="#000"/><path id="path74" d="m8 105.00025h8v.9996h-8z" color="#000"/><path id="path76" d="m32 105.00025h-8v.9996h8z" color="#000"/></g><path id="path40-3" d="m 18,7 h 4 v 99 h -4 z" style="color:#000;fill:#050505;stroke-width:.99999994"/><path id="path42-6" d="m 17,107 h 6 V 6 h -6 z m 1,-1 V 7.000001 h 4 V 106 Z" style="fill:#505050;paint-order:fill markers stroke"/></svg>