<svg xmlns="http://www.w3.org/2000/svg" xmlns:svg="http://www.w3.org/2000/svg" id="svg70" width="30" height="65" version="1.1"><metadata id="metadata76"/><path style="color:#000;fill:#050505;stroke-width:.99979782" id="path4" d="m 6,4.500412 h 6 V 5.500008 H 6 Z"/><path style="color:#000;fill:#050505;stroke-width:.99979782" id="path6" d="m 6,13.500404 h 6 V 14.5 H 6 Z"/><path style="color:#000;fill:#050505;stroke-width:.99979782" id="path8" d="m 4,31.500404 h 8 V 32.5 H 4 Z"/><path style="color:#000;fill:#050505;stroke-width:.99979782" id="path10" d="m 6,22.500404 h 6 V 23.5 H 6 Z"/><path style="color:#000;fill:#050505;stroke-width:.99979782" id="path12" d="m 6,40.500352 h 6 v 0.999596 H 6 Z"/><path style="color:#000;fill:#050505;stroke-width:.99979782" id="path14" d="m 6,58.500254 h 6 V 59.49985 H 6 Z"/><path style="color:#000;fill:#050505;stroke-width:.99979782" id="path16" d="m 6,49.500303 h 6 v 0.999596 H 6 Z"/><path style="color:#000;fill:#050505;stroke-width:.99979782" id="path18" d="m 24,4.500412 h -6 v 0.999596 h 6 z"/><path style="color:#000;fill:#050505;stroke-width:.99979782" id="path20" d="M 24,13.500404 H 18 V 14.5 h 6 z"/><path style="color:#000;fill:#050505;stroke-width:.99979782" id="path22" d="M 26,31.500404 H 18 V 32.5 h 8 z"/><path style="color:#000;fill:#050505;stroke-width:.99979782" id="path24" d="M 24,22.500404 H 18 V 23.5 h 6 z"/><path style="color:#000;fill:#050505;stroke-width:.99979782" id="path26" d="m 24,40.500352 h -6 v 0.999596 h 6 z"/><path style="color:#000;fill:#050505;stroke-width:.99979782" id="path28" d="m 24,58.500254 h -6 v 0.999596 h 6 z"/><path style="color:#000;fill:#050505;stroke-width:.99979782" id="path30" d="m 24,49.500303 h -6 v 0.999596 h 6 z"/><g id="g42" fill="#636363" stroke-width="1" transform="translate(2)"><path id="path38" d="m2 32.000404h8v.999596h-8z" color="#000"/><path id="path40" d="m24 32.000404h-8v.999596h8z" color="#000"/></g><g id="g68" fill="#404040" stroke-width="1" transform="translate(2)"><path id="path44" d="m4 5.000412h6v.999596h-6z" color="#000"/><path id="path46" d="m4 14.000404h6v.999596h-6z" color="#000"/><path id="path48" d="m4 23.000404h6v.999596h-6z" color="#000"/><path id="path50" d="m4 41.000352h6v.999596h-6z" color="#000"/><path id="path52" d="m4 59.000254h6v.999596h-6z" color="#000"/><path id="path54" d="m4 50.000303h6v.999596h-6z" color="#000"/><path id="path56" d="m22 5.000412h-6v.999596h6z" color="#000"/><path id="path58" d="m22 14.000404h-6v.999596h6z" color="#000"/><path id="path60" d="m22 23.000404h-6v.999596h6z" color="#000"/><path id="path62" d="m22 41.000352h-6v.999596h6z" color="#000"/><path id="path64" d="m22 59.000254h-6v.999596h6z" color="#000"/><path id="path66" d="m22 50.000303h-6v.999596h6z" color="#000"/></g><path id="path2" d="m 14,4.999999 h 2 V 60 h -2 z" style="color:#000;stroke-width:.99999994"/><path id="path36" d="m 13,61 h 4 V 3.999999 h -4 z m 1,-1 V 5 h 2 v 55 z" style="fill:#505050;paint-order:fill markers stroke"/></svg>