<svg xmlns="http://www.w3.org/2000/svg" xmlns:xlink="http://www.w3.org/1999/xlink" width="68" height="26" version="1.1"><defs><linearGradient id="a" x1="2" x2="24" y1="12" y2="12" gradientTransform="matrix(.95652175 0 0 2.7826086 .565189 -64.608695)" gradientUnits="userSpaceOnUse"><stop offset="0" stop-opacity=".005"/><stop offset=".5" stop-opacity="0"/><stop offset="1" stop-opacity=".475"/></linearGradient><linearGradient id="b" x1="1" x2="24.19" y1="-26" y2="-26" gradientTransform="matrix(1 0 0 1.3265306 .8095239 28.220564)" gradientUnits="userSpaceOnUse"><stop offset="0" stop-color="#aeaeae" stop-opacity=".078"/><stop offset=".301" stop-color="#5b5b5b" stop-opacity=".078"/><stop offset="1" stop-opacity=".392"/></linearGradient></defs><path d="m67 2.7070312v21.4921878c0 .261088-.144484.48515-.314453.613281-.16997.12813-.372602.1875-.583985.1875h-64.2031245c-.00405 0-.00767-.0019-.011719-.002.2913743.560297.8039315 1.001998 1.6132815 1.002h62c1.108 2e-6 2-.892 2-2v-20c0-.5008592-.197131-.943691-.5-1.2929688z"/><rect width="22" height="64" x="2" y="-66" fill-opacity=".09" stroke-width="1" color="#000" transform="rotate(90)"/><rect width="24" height="66" x="1" y="-67" fill="url(#a)" stroke-width="1" color="#000" rx=".9" ry=".9" transform="rotate(90)"/><rect width="23" height="65" x="1.5" y="-66.5" fill="none" stroke="url(#b)" stroke-linecap="round" stroke-linejoin="round" rx=".3" ry=".398" transform="rotate(90)" style="paint-order:fill markers stroke"/></svg>