<svg xmlns="http://www.w3.org/2000/svg" xmlns:svg="http://www.w3.org/2000/svg" id="svg16" width="14" height="18" version="1.1"><metadata id="metadata22"/><g id="g8" transform="translate(-3.9997376,-1.989)" style="fill:none;stroke:#000001;stroke-width:1.60000002;stroke-linejoin:round"><g id="g6" transform="matrix(0.93992449,0,0,0.93992449,1.6003517,1.6003969)" style="fill:none;stroke:#000001;stroke-width:1.70226443;stroke-linejoin:round"><path id="path2" d="m 14.70815,11.4378 -4.708,4.7081 -4.708,-4.7081 -1.177,1.1771 5.885,5.8851 5.885,-5.8851 z"/><path id="path4" d="M 14.70815,8.562 10.00005,3.8539004 5.29195,8.562 4.11485,7.3849 9.99995,1.4998004 15.88505,7.3849 14.70795,8.562 Z"/></g></g><g id="g14" transform="matrix(0.93992449,0,0,0.93992449,-2.3993859,-0.3886031)" style="fill:#777;fill-opacity:1"><path style="fill:#777;fill-opacity:1" id="path10" d="m 14.70815,11.4378 -4.708,4.7081 -4.708,-4.7081 -1.177,1.1771 5.885,5.8851 5.885,-5.8851 z"/><path style="fill:#777;fill-opacity:1" id="path12" d="M 14.70815,8.562 10.00005,3.8539004 5.29195,8.562 4.11485,7.3849 9.99995,1.4998004 15.88505,7.3849 14.70795,8.562 Z"/></g></svg>