<svg xmlns="http://www.w3.org/2000/svg" xmlns:svg="http://www.w3.org/2000/svg" id="svg17" width="26" height="26" version="1.1"><metadata id="metadata21"/><defs id="defs9"><linearGradient id="a" x1=".5" x2="24.406" y1="12" y2="12" gradientTransform="matrix(-0.91304352,0,0,0.42857142,-0.13037539,-11.142857)" gradientUnits="userSpaceOnUse"><stop id="stop2" offset="0" stop-opacity=".475"/><stop id="stop4" offset=".507" stop-opacity="0"/><stop id="stop6" offset="1" stop-opacity=".005"/></linearGradient></defs><path style="color:#000;font-style:normal;font-variant:normal;font-weight:400;font-stretch:normal;font-size:medium;line-height:normal;font-family:sans-serif;font-variant-ligatures:normal;font-variant-position:normal;font-variant-caps:normal;font-variant-numeric:normal;font-variant-alternates:normal;font-variant-east-asian:normal;font-feature-settings:normal;font-variation-settings:normal;text-indent:0;text-align:start;text-decoration:none;text-decoration-line:none;text-decoration-style:solid;text-decoration-color:#000;letter-spacing:normal;word-spacing:normal;text-transform:none;writing-mode:lr-tb;direction:ltr;text-orientation:mixed;dominant-baseline:auto;baseline-shift:baseline;text-anchor:start;white-space:normal;shape-padding:0;shape-margin:0;inline-size:0;clip-rule:nonzero;display:inline;overflow:visible;visibility:visible;opacity:1;isolation:auto;mix-blend-mode:normal;color-interpolation:sRGB;color-interpolation-filters:linearRGB;solid-color:#000;solid-opacity:1;vector-effect:none;fill:#000001;fill-opacity:1;fill-rule:nonzero;stroke:none;stroke-width:1;stroke-linecap:square;stroke-linejoin:miter;stroke-miterlimit:4;stroke-dasharray:none;stroke-dashoffset:0;stroke-opacity:1;paint-order:fill markers stroke;color-rendering:auto;image-rendering:auto;shape-rendering:auto;text-rendering:auto;enable-background:accumulate;stop-color:#000;stop-opacity:1" id="path854" d="M 0,0 V 26.000016 H 26.1 V 0 Z m 2,1 h 22.1 c 0.562649,0 1,0.4373514 1,1 v 22.000016 c 0,0.562649 -0.437351,1 -1,1 H 2 c -0.5626486,0 -1,-0.437351 -1,-1 V 2 C 1,1.4373514 1.4373514,1 2,1 Z"/><path style="color:#000001;fill:url(#a)" id="rect15" d="m -22.999984,-24.6 h 20.0000165 c 0.831,0 1.4999999,0.669 1.4999999,1.5 V -3 c 0,0.831 -0.6689999,1.5 -1.4999999,1.5 H -22.999984 c -0.831,0 -1.5,-0.669 -1.5,-1.5 v -20.1 c 0,-0.831 0.669,-1.5 1.5,-1.5 z" transform="matrix(0,-1,-1,0,0,0)"/></svg>