<svg xmlns="http://www.w3.org/2000/svg" xmlns:svg="http://www.w3.org/2000/svg" id="svg32" width="46" height="20" version="1.1"><metadata id="metadata38"/><g id="g10" transform="translate(-2,-2)" style="fill:none"><path id="path2" d="M 16,8 H 9 v 4 h 5 v 2 H 9 v 1 h 7 V 11 H 11 V 9 h 5 V 8"/><path id="path4" d="m 26,8 v 7 h 2 V 9 h 3 v 6 h 2 V 8 h -7"/><path id="path6" d="m 34,8 v 7 h 7 V 14 H 36 V 9 h 5 V 8 h -7"/><path id="path8" d="m 20,15 v -3.5 l -3,-3 V 8 h 1.5 L 21,10.5 23.5,8 H 25 v 0.5 l -3,3 V 15 h -2"/></g><g id="g20" transform="translate(-2,-2)" style="fill:none;stroke:#000001;stroke-width:1.60000002;stroke-linecap:round;stroke-linejoin:round"><path id="path12" d="M 16,8 H 9 v 4 h 5 v 2 H 9 v 1 h 7 V 11 H 11 V 9 h 5 z"/><path id="path14" d="m 26,8 v 7 h 2 V 9 h 3 v 6 h 2 V 8 Z"/><path id="path16" d="m 34,8 v 7 h 7 V 14 H 36 V 9 h 5 V 8 Z"/><path id="path18" d="m 20,15 v -3.5 l -3,-3 V 8 h 1.5 L 21,10.5 23.5,8 H 25 v 0.5 l -3,3 V 15 Z"/></g><g id="g30" transform="translate(-2,-2)" style="fill:#d2d2d1"><path id="path22" d="M 16,8 H 9 v 4 h 5 v 2 H 9 v 1 h 7 V 11 H 11 V 9 h 5 z"/><path id="path24" d="m 26,8 v 7 h 2 V 9 h 3 v 6 h 2 V 8 Z"/><path id="path26" d="m 34,8 v 7 h 7 V 14 H 36 V 9 h 5 V 8 Z"/><path id="path28" d="m 20,15 v -3.5 l -3,-3 V 8 h 1.5 L 21,10.5 23.5,8 H 25 v 0.5 l -3,3 V 15 Z"/></g></svg>