<svg xmlns="http://www.w3.org/2000/svg" xmlns:svg="http://www.w3.org/2000/svg" xmlns:xlink="http://www.w3.org/1999/xlink" id="svg29" width="40" height="34" version="1.1"><metadata id="metadata33"/><defs id="defs17"><radialGradient id="f" cx="366.935" cy="355.36" r="25.759" fx="366.935" fy="355.36" gradientTransform="matrix(0.69980946,-0.00367881,0.00393052,0.76229507,108.75351,85.820703)" gradientUnits="userSpaceOnUse"><stop id="stop10" offset="0" stop-color="#fefefe" stop-opacity=".949"/><stop style="stop-color:#909090;stop-opacity:.16931216" id="stop14" offset="1" stop-color="#a3a4a2" stop-opacity=".024"/></radialGradient><filter id="d" width="1.012" height="1.012" x="-.006" y="-.006" style="color-interpolation-filters:sRGB"><feGaussianBlur id="feGaussianBlur2" stdDeviation=".107"/></filter><linearGradient id="c" x1="256.74" x2="446.622" y1="472.03" y2="483.052" gradientTransform="matrix(-0.0309358,-0.09353841,0.09280739,-0.03117947,-12.260041,64.912913)" gradientUnits="userSpaceOnUse"><stop id="stop2" offset="0" stop-color="#1e1e1e"/><stop id="stop4" offset="1" stop-color="#3d3d3d"/></linearGradient><linearGradient id="b" x1="8.001" x2="31.999" y1="18.998" y2="18.998" gradientTransform="rotate(-105.96536,19.999759,18.998455)" gradientUnits="userSpaceOnUse"><stop id="stop7" offset="0" stop-color="#0e0e0e"/><stop id="stop9" offset="1" stop-color="#5d5d5d"/></linearGradient><radialGradient id="b-3-3" cx="366.94" cy="355.36" r="21.466" gradientTransform="matrix(1,0,0,0.98824,-5.7382e-7,4.1807)" gradientUnits="userSpaceOnUse" xlink:href="#d-3"><stop id="stop5-6" offset="0" stop-color="#c4f161" stop-opacity=".949"/><stop style="stop-color:#73c500;stop-opacity:1" id="stop7-7" offset=".547" stop-color="#c0ff5d" stop-opacity=".82"/><stop style="stop-color:#5ba000;stop-opacity:.4509804" id="stop9-5" offset="1" stop-color="#7bd002" stop-opacity="0"/></radialGradient><linearGradient id="d-3" x1="12.517" x2="12.517" y1="3.966" y2="11.699" gradientTransform="translate(0,0.0529661)" gradientUnits="userSpaceOnUse"><stop id="stop12-6" offset="0" stop-color="#77c305"/><stop id="stop14-7" offset="1" stop-color="#457600"/></linearGradient><filter style="color-interpolation-filters:sRGB" id="c-5-6"><feGaussianBlur id="feGaussianBlur2-2" stdDeviation=".427"/></filter></defs><path style="color:#000;font-style:normal;font-variant:normal;font-weight:400;font-stretch:normal;font-size:medium;line-height:normal;font-family:sans-serif;font-variant-ligatures:normal;font-variant-position:normal;font-variant-caps:normal;font-variant-numeric:normal;font-variant-alternates:normal;font-feature-settings:normal;text-indent:0;text-align:start;text-decoration:none;text-decoration-line:none;text-decoration-style:solid;text-decoration-color:#000;letter-spacing:normal;word-spacing:normal;text-transform:none;writing-mode:lr-tb;direction:ltr;text-orientation:mixed;dominant-baseline:auto;baseline-shift:baseline;text-anchor:start;white-space:normal;shape-padding:0;clip-rule:nonzero;display:inline;overflow:visible;visibility:visible;opacity:1;isolation:auto;mix-blend-mode:normal;color-interpolation:sRGB;color-interpolation-filters:linearRGB;solid-color:#000;solid-opacity:1;vector-effect:none;fill:#000;fill-opacity:1;fill-rule:nonzero;stroke:none;stroke-width:1.60000002;stroke-linecap:butt;stroke-linejoin:miter;stroke-miterlimit:4;stroke-dasharray:none;stroke-dashoffset:0;stroke-opacity:1;color-rendering:auto;image-rendering:auto;shape-rendering:auto;text-rendering:auto;enable-background:accumulate" id="path19" d="m 17.309704,6.9472657 0.01953,6.8964843 c 7.77e-4,0.689172 0.276853,1.179881 0.758656,1.570312 0.482287,0.390825 1.127815,0.541246 1.867187,0.541246 0.703131,0 1.348346,-0.09195 1.857422,-0.457261 0.509076,-0.365309 0.806399,-0.88929 0.87389,-1.558594 l 0.0039,-0.04297 v -0.04101 l 0.002,-6.8515627 C 20.169753,6.3462161 19.847674,6.3199505 17.309704,6.9472657 Z"/><path style="fill:#828282;fill-opacity:1;stroke:none;stroke-width:1.60000002;stroke-linejoin:round;stroke-miterlimit:4;stroke-dasharray:none;stroke-opacity:1" id="rect825" d="m 19.981484,5.6929565 c 1.108,0 1.862266,-0.029083 1.862266,1.0789168 v 6.6816187 c 0,1.108 -0.73575,1.701689 -1.84375,1.701689 -1.108,0 -1.84375,-0.593689 -1.84375,-1.701689 V 6.7718733 c 0,-1.108 0.717234,-1.0789168 1.825234,-1.0789168 z"/><path style="opacity:.52899996;fill:url(#f);filter:url(#d)" id="path27" d="m 388.4,355.36 a 21.466,21.213 0 1 1 -42.931,0 21.466,21.213 0 1 1 42.931,0 z" transform="matrix(0.08190769,0,0,0.04167502,-10.055006,-8.2250257)"/></svg>