<svg xmlns="http://www.w3.org/2000/svg" xmlns:svg="http://www.w3.org/2000/svg" id="svg22" width="100" height="100" enable-background="new" version="1.1"><metadata id="metadata26"/><defs id="defs12"><radialGradient id="c" cx="50.003" cy="45.492" r="20.077" gradientTransform="matrix(1.0417 0 0 1.0417 -2.086 2.6121)" gradientUnits="userSpaceOnUse"><stop id="stop2" offset="0" stop-color="#eece33"/><stop id="stop4" offset="1" stop-color="#eece33" stop-opacity="0"/></radialGradient><linearGradient id="b" x1="2.625" x2="97.375" y1="50" y2="50" gradientTransform="matrix(-0.26579674,-0.96388794,0.96650068,-0.26507821,114.97193,111.56218)" gradientUnits="userSpaceOnUse"><stop id="stop7" offset="0" style="stop-color:#000;stop-opacity:1"/><stop id="stop9" offset="1" stop-color="#dedede" stop-opacity=".571" style="stop-color:#a1a1a1;stop-opacity:.56862748"/></linearGradient></defs><rect style="fill:#000;fill-opacity:.30000001;stroke-width:1.04167" id="rect2" width="100" height="100" x="0" y="0" fill="#020202" color="#000" enable-background="accumulate"/><path id="path18" fill="#1e1e1e" d="m0 0v100h100v-100zm50 3.125c12.259 0 24.47 5.0688 33.138 13.737 8.6682 8.6682 13.737 20.879 13.737 33.138s-5.0688 24.47-13.737 33.138l-.09766.09766c-8.6622 8.6087-20.828 13.639-33.04 13.639-12.259 0-24.47-5.0688-33.138-13.737l-.09766-.09766c-8.6087-8.6622-13.639-20.828-13.639-33.04 0-12.259 5.0688-24.47 13.737-33.138 8.6682-8.6682 20.879-13.737 33.138-13.737z" color="#000" enable-background="accumulate" style="fill:#1e1e20;fill-opacity:1"/><circle style="fill:#887f6d;fill-opacity:.4;stroke:none;stroke-width:1.10157;stroke-linecap:round;stroke-linejoin:round" id="path1221-3-6" cx="50" cy="50" r="15"/><path id="path16" d="m 52.66856,50.01315 a 2.6685924,2.6685924 0 0 1 -5.33712,0 2.6685924,2.6685924 0 1 1 5.33712,0 z"/></svg>