<svg xmlns="http://www.w3.org/2000/svg" xmlns:svg="http://www.w3.org/2000/svg" xmlns:xlink="http://www.w3.org/1999/xlink" id="svg1272" width="32" height="20" version="1.1" viewBox="0 0 8.467 5.292"><defs id="defs1266"><linearGradient id="linearGradient1980" x1="9.315" x2="9.315" y1="19.048" y2="1.026" gradientUnits="userSpaceOnUse" spreadMethod="pad"><stop style="stop-color:#80766b;stop-opacity:1" id="stop1976" offset="0" stop-color="#888"/><stop id="stop1978" offset="1" stop-color="#bfbfbe" style="stop-color:#a89a8c;stop-opacity:1"/></linearGradient><linearGradient id="linearGradient1974" x1="9.315" x2="9.315" y1="19.048" y2="1.026" gradientUnits="userSpaceOnUse" spreadMethod="pad"><stop style="stop-color:#80766b;stop-opacity:1" id="stop1970" offset="0" stop-color="#888"/><stop id="stop1972" offset="1" stop-color="#bfbfbe" style="stop-color:#a89a8c;stop-opacity:1"/></linearGradient><linearGradient id="linearGradient841" x1="9.315" x2="9.315" y1="19.048" y2="1.026" gradientUnits="userSpaceOnUse" spreadMethod="pad"><stop style="stop-color:#80766b;stop-opacity:1" id="stop837" offset="0" stop-color="#888"/><stop style="stop-color:#a89a8c;stop-opacity:1" id="stop839" offset="1" stop-color="#bfbfbe"/></linearGradient><linearGradient id="linearGradient1896" x1="9.315" x2="9.315" y1="14.726" y2="1.026" gradientTransform="matrix(0.26458333,0,0,0.26458333,0,291.70833)" gradientUnits="userSpaceOnUse" spreadMethod="pad" xlink:href="#linearGradient1974"/><linearGradient id="linearGradient1898" x1="9.315" x2="9.315" y1="14.726" y2="1.026" gradientTransform="matrix(0.26458333,0,0,0.26458333,0,291.70833)" gradientUnits="userSpaceOnUse" spreadMethod="pad" xlink:href="#linearGradient1980"/><linearGradient id="linearGradient1900" x1="9.315" x2="9.315" y1="14.726" y2="1.026" gradientTransform="matrix(0.26458333,0,0,0.26458333,0,291.70833)" gradientUnits="userSpaceOnUse" spreadMethod="pad" xlink:href="#linearGradient841"/></defs><metadata id="metadata1269"/><g id="layer1" transform="translate(0,-291.70833)"><rect style="fill:url(#linearGradient1896);fill-opacity:1;stroke-width:.26458332;paint-order:fill markers stroke" id="rect9" width="2.117" height="1.587" x=".265" y="293.56" rx=".265" ry=".265"/><path style="fill:url(#linearGradient1898);fill-opacity:1;stroke-width:.26458332;paint-order:fill markers stroke" id="path11" d="M 3.4395833,293.56041 C 3.2930041,293.56041 3.175,293.67842 3.175,293.825 h 0.2645833 z m 0.2645833,0 V 293.825 H 3.96875 v -0.26459 z m 0.5291667,0 v 0.26459 h 0.2645833 v -0.26459 z m 0.5291666,0 v 0.26459 h 0.5291667 c 0,-0.14658 -0.1180042,-0.26459 -0.2645833,-0.26459 z M 3.175,294.08958 v 0.26458 h 0.2645833 v -0.26458 z m 1.8520833,0 v 0.26458 h 0.2645833 v -0.26458 z M 3.175,294.61875 v 0.26458 c 0,0.14658 0.1180041,0.26458 0.2645833,0.26458 v -0.52916 z m 1.8520833,0 c 0,0.14658 -0.1180042,0.26458 -0.2645834,0.26458 v 0.26458 h 0.2645834 c 0.1465791,0 0.2645833,-0.118 0.2645833,-0.26458 v -0.26458 z m -1.3229167,0.26458 v 0.26458 H 3.96875 v -0.26458 z m 0.5291667,0 v 0.26458 h 0.2645833 v -0.26458 z"/><path style="fill:url(#linearGradient1900);fill-opacity:1;stroke-width:.26458332;paint-order:fill markers stroke" id="path13" d="m 6.3499999,293.56041 c -0.1465791,0 -0.2645833,0.11801 -0.2645833,0.26459 v 1.05833 c 0,0.14658 0.1180042,0.26458 0.2645833,0.26458 h 1.5875 c 0.1465792,0 0.2645833,-0.118 0.2645833,-0.26458 V 293.825 c 0,-0.14658 -0.1180041,-0.26459 -0.2645833,-0.26459 z m 0.2645833,0.26459 h 1.0583334 c 0.1465791,0 0.2645833,0.118 0.2645833,0.26458 v 0.52917 c 0,0.14658 -0.1180042,0.26458 -0.2645833,0.26458 H 6.6145832 c -0.1465791,0 -0.2645833,-0.118 -0.2645833,-0.26458 v -0.52917 c 0,-0.14658 0.1180042,-0.26458 0.2645833,-0.26458 z"/></g></svg>