<svg xmlns="http://www.w3.org/2000/svg" xmlns:svg="http://www.w3.org/2000/svg" id="svg16" width="24" height="24" version="1.1"><metadata id="metadata22"/><g style="fill:none;stroke:#000;stroke-opacity:1;stroke-width:1.6;stroke-miterlimit:4;stroke-dasharray:none;stroke-linejoin:round;stroke-linecap:round" id="g854"><path style="fill:none;stroke:#000;stroke-opacity:1;stroke-width:1.6;stroke-miterlimit:4;stroke-dasharray:none;stroke-linejoin:round;stroke-linecap:round" id="path4-3" d="m 9,3 v 3 l 11,1e-6 v 2 L 9,8 v 3 L 2,7 Z"/><path id="path2-6" d="M 15,21 H 13 V 9 h 2 z" style="fill:none;fill-opacity:1;stroke:#000;stroke-opacity:1;stroke-width:1.6;stroke-miterlimit:4;stroke-dasharray:none;stroke-linejoin:round;stroke-linecap:round"/><path style="fill:none;fill-opacity:1;stroke:#000;stroke-opacity:1;stroke-width:1.6;stroke-miterlimit:4;stroke-dasharray:none;stroke-linejoin:round;stroke-linecap:round" id="path6-7" d="M 7,21 H 9 V 12 H 7 Z"/><path style="fill:none;fill-opacity:1;stroke:#000;stroke-opacity:1;stroke-width:1.6;stroke-miterlimit:4;stroke-dasharray:none;stroke-linejoin:round;stroke-linecap:round" id="path8-5" d="M 15,5 H 13 V 3 h 2 z"/><path style="fill:none;fill-opacity:1;stroke:#000;stroke-opacity:1;stroke-width:1.6;stroke-miterlimit:4;stroke-dasharray:none;stroke-linejoin:round;stroke-linecap:round" id="path10-3" d="M 21,21 H 19 V 9 h 2 z"/><path style="fill:none;fill-opacity:1;stroke:#000;stroke-opacity:1;stroke-width:1.6;stroke-miterlimit:4;stroke-dasharray:none;stroke-linejoin:round;stroke-linecap:round" id="path12-5" d="M 21,5 H 19 V 3 h 2 z"/></g><path id="path4" fill="#928476" d="m9 3v3l11 1e-6v2l-11-1e-6v3l-7-4z"/><path style="fill:#3f3d3d;fill-opacity:1" id="path2" d="M 15,21 H 13 V 9 h 2 z"/><path id="path6" d="M 7,21 H 9 V 12 H 7 Z" style="fill:#3f3d3d;fill-opacity:1"/><path id="path8" d="M 15,5 H 13 V 3 h 2 z" style="fill:#3f3d3d;fill-opacity:1"/><path id="path10" d="M 21,21 H 19 V 9 h 2 z" style="fill:#3f3d3d;fill-opacity:1"/><path id="path12" d="M 21,5 H 19 V 3 h 2 z" style="fill:#3f3d3d;fill-opacity:1"/></svg>