<svg xmlns="http://www.w3.org/2000/svg" width="6" height="6" version="1.1" viewBox="0 0 6 6"><defs><linearGradient id="a" x1=".078" x2="4.922" y1="2.5" y2="2.5" gradientTransform="rotate(-90,0,6)" gradientUnits="userSpaceOnUse"><stop offset="0"/><stop offset="1" stop-color="#727272"/></linearGradient></defs><path fill="#e49100" stroke="url(#a)" stroke-width=".6" d="m-5.6224949 3.5c0 1.1716273.9508677 2.1224951 2.1224949 2.1224951 1.1716273 0 2.1224949-.9508678 2.1224949-2.1224951 0-1.1716272-.9508676-2.1224951-2.1224948-2.1224951-1.1716273 0-2.122495.9508679-2.122495 2.1224951z"/><path fill="#535353" d="m 0,2.9999998 c 0,1.6560141 1.3439858,3 2.9999999,3 1.6560143,0 3,-1.3439859 3,-3 C 5.9999999,1.3439859 4.6560142,-1.24e-7 3.0000001,-1.24e-7 1.3439858,-1.24e-7 0,1.3439859 0,2.9999998 Z"/></svg>