<svg xmlns="http://www.w3.org/2000/svg" xmlns:svg="http://www.w3.org/2000/svg" id="svg17" width="35" height="20" version="1.1"><metadata id="metadata21"/><defs id="defs9"><linearGradient id="a" x1="2" x2="24" y1="12" y2="12" gradientTransform="matrix(.71567746 0 0 1.3913044 .96591082 -32.804349)" gradientUnits="userSpaceOnUse"><stop id="stop2" offset="0" stop-opacity=".005"/><stop id="stop4" offset=".5" stop-opacity="0"/><stop id="stop6" offset="1" stop-opacity=".475"/></linearGradient></defs><path style="color:#000;font-style:normal;font-variant:normal;font-weight:400;font-stretch:normal;font-size:medium;line-height:normal;font-family:sans-serif;font-variant-ligatures:normal;font-variant-position:normal;font-variant-caps:normal;font-variant-numeric:normal;font-variant-alternates:normal;font-feature-settings:normal;text-indent:0;text-align:start;text-decoration:none;text-decoration-line:none;text-decoration-style:solid;text-decoration-color:#000;letter-spacing:normal;word-spacing:normal;text-transform:none;writing-mode:lr-tb;direction:ltr;text-orientation:mixed;dominant-baseline:auto;baseline-shift:baseline;text-anchor:start;white-space:normal;shape-padding:0;clip-rule:nonzero;display:inline;overflow:visible;visibility:visible;opacity:1;isolation:auto;mix-blend-mode:normal;color-interpolation:sRGB;color-interpolation-filters:linearRGB;solid-color:#000;solid-opacity:1;vector-effect:none;fill:#000001;fill-opacity:1;fill-rule:nonzero;stroke:none;stroke-width:1;stroke-linecap:round;stroke-linejoin:round;stroke-miterlimit:4;stroke-dasharray:none;stroke-dashoffset:0;stroke-opacity:1;paint-order:fill markers stroke;color-rendering:auto;image-rendering:auto;shape-rendering:auto;text-rendering:auto;enable-background:accumulate" id="rect15-9" d="M 1.8007812,1 C 1.3662299,1 1,1.36623 1,1.8007812 V 18.199219 C 1,18.63377 1.36623,19 1.8007812,19 H 33.19932 c 0.434551,0 0.800781,-0.36623 0.800781,-0.800781 V 1.8007812 C 34.000101,1.3662299 33.633871,1 33.19932,1 Z M 3,2 h 29.000101 c 0.562649,0 1,0.4373514 1,1 v 14 c 0,0.562649 -0.437351,1 -1,1 H 3 C 2.4373514,18 2,17.562649 2,17 V 3 C 2,2.4373514 2.4373514,2 3,2 Z"/><path style="color:#000;font-style:normal;font-variant:normal;font-weight:400;font-stretch:normal;font-size:medium;line-height:normal;font-family:sans-serif;font-variant-ligatures:normal;font-variant-position:normal;font-variant-caps:normal;font-variant-numeric:normal;font-variant-alternates:normal;font-feature-settings:normal;text-indent:0;text-align:start;text-decoration:none;text-decoration-line:none;text-decoration-style:solid;text-decoration-color:#000;letter-spacing:normal;word-spacing:normal;text-transform:none;writing-mode:lr-tb;direction:ltr;text-orientation:mixed;dominant-baseline:auto;baseline-shift:baseline;text-anchor:start;white-space:normal;shape-padding:0;clip-rule:nonzero;display:inline;overflow:visible;visibility:visible;opacity:1;isolation:auto;mix-blend-mode:normal;color-interpolation:sRGB;color-interpolation-filters:linearRGB;solid-color:#000;solid-opacity:1;vector-effect:none;fill:#dcdcdc;fill-opacity:.07058824;fill-rule:nonzero;stroke:none;stroke-width:1;stroke-linecap:round;stroke-linejoin:round;stroke-miterlimit:4;stroke-dasharray:none;stroke-dashoffset:0;stroke-opacity:1;paint-order:fill markers stroke;color-rendering:auto;image-rendering:auto;shape-rendering:auto;text-rendering:auto;enable-background:accumulate" id="rect15-3-7-1" d="M 3,2 C 2.4373514,2 2,2.437352 2,3 V 3.5 H 3.1074219 C 3.2574996,3.2065045 3.5543285,3 3.9082031,3 H 31.091898 c 0.353874,0 0.650703,0.2065045 0.800781,0.5 h 1.107422 V 3 c 0,-0.562648 -0.437351,-1 -1,-1 z"/><path style="color:#000;font-style:normal;font-variant:normal;font-weight:400;font-stretch:normal;font-size:medium;line-height:normal;font-family:sans-serif;font-variant-ligatures:normal;font-variant-position:normal;font-variant-caps:normal;font-variant-numeric:normal;font-variant-alternates:normal;font-feature-settings:normal;text-indent:0;text-align:start;text-decoration:none;text-decoration-line:none;text-decoration-style:solid;text-decoration-color:#000;letter-spacing:normal;word-spacing:normal;text-transform:none;writing-mode:lr-tb;direction:ltr;text-orientation:mixed;dominant-baseline:auto;baseline-shift:baseline;text-anchor:start;white-space:normal;shape-padding:0;clip-rule:nonzero;display:inline;overflow:visible;visibility:visible;opacity:1;isolation:auto;mix-blend-mode:normal;color-interpolation:sRGB;color-interpolation-filters:linearRGB;solid-color:#000;solid-opacity:1;vector-effect:none;fill:#d1d1d1;fill-opacity:.01960784;fill-rule:nonzero;stroke:none;stroke-width:1;stroke-linecap:round;stroke-linejoin:round;stroke-miterlimit:4;stroke-dasharray:none;stroke-dashoffset:0;stroke-opacity:1;paint-order:fill markers stroke;color-rendering:auto;image-rendering:auto;shape-rendering:auto;text-rendering:auto;enable-background:accumulate" id="rect15-3-7-9" d="M 3,18 C 2.4373514,18 2,17.562648 2,17 V 3.5 h 1 v 7.060547 5.53125 C 3,16.595433 3.4045667,17 3.9082031,17 H 31.091898 c 0.503636,0 0.997804,-0.412601 0.908203,-0.908203 V 10.560547 3.5 h 1 V 17 c 0,0.562648 -0.437351,1 -1,1 z"/></svg>