<svg xmlns="http://www.w3.org/2000/svg" xmlns:svg="http://www.w3.org/2000/svg" id="svg19" width="26" height="52" version="1.1"><metadata id="metadata23"/><defs id="defs9"><linearGradient id="a" x1=".5" x2="24.406" y1="12" y2="12" gradientTransform="matrix(-2.1304348 0 0 .46938776 1.6956841 -12.061224)" gradientUnits="userSpaceOnUse"><stop id="stop2" offset="0" stop-opacity=".475"/><stop id="stop4" offset=".507" stop-opacity="0"/><stop id="stop6" offset="1" stop-opacity=".005"/></linearGradient></defs><path id="rect15-9" d="M 0.8007812,0 C 0.3662299,0 0,0.36623 0,0.800781 V 51.199219 C 0,51.63377 0.36623,52 0.8007812,52 H 25.19932 c 0.434551,0 0.800781,-0.36623 0.800781,-0.800781 V 0.800781 C 26.000101,0.36623 25.633871,0 25.19932,0 Z M 2,1 h 22.000101 c 0.562649,0 1,0.437351 1,1 v 48 c 0,0.562649 -0.437351,1 -1,1 H 2 C 1.4373514,51 1,50.562649 1,50 V 2 C 1,1.437351 1.4373514,1 2,1 Z" style="color:#000;font-style:normal;font-variant:normal;font-weight:400;font-stretch:normal;font-size:medium;line-height:normal;font-family:sans-serif;font-variant-ligatures:normal;font-variant-position:normal;font-variant-caps:normal;font-variant-numeric:normal;font-variant-alternates:normal;font-feature-settings:normal;text-indent:0;text-align:start;text-decoration:none;text-decoration-line:none;text-decoration-style:solid;text-decoration-color:#000;letter-spacing:normal;word-spacing:normal;text-transform:none;writing-mode:lr-tb;direction:ltr;text-orientation:mixed;dominant-baseline:auto;baseline-shift:baseline;text-anchor:start;white-space:normal;shape-padding:0;clip-rule:nonzero;display:inline;overflow:visible;visibility:visible;opacity:1;isolation:auto;mix-blend-mode:normal;color-interpolation:sRGB;color-interpolation-filters:linearRGB;solid-color:#000;solid-opacity:1;vector-effect:none;fill:#000001;fill-opacity:1;fill-rule:nonzero;stroke:none;stroke-width:1;stroke-linecap:round;stroke-linejoin:round;stroke-miterlimit:4;stroke-dasharray:none;stroke-dashoffset:0;stroke-opacity:1;paint-order:fill markers stroke;color-rendering:auto;image-rendering:auto;shape-rendering:auto;text-rendering:auto;enable-background:accumulate"/><path id="rect15-3-7-1" d="M 2,1 C 1.4373514,1 1,1.437352 1,2 V 2.5 H 2.1074219 C 2.2574996,2.206504 2.5543285,2 2.9082031,2 H 23.091898 c 0.353875,0 0.650703,0.206504 0.800781,0.5 h 1.107422 V 2 c 0,-0.562648 -0.437351,-1 -1,-1 z" style="color:#000;font-style:normal;font-variant:normal;font-weight:400;font-stretch:normal;font-size:medium;line-height:normal;font-family:sans-serif;font-variant-ligatures:normal;font-variant-position:normal;font-variant-caps:normal;font-variant-numeric:normal;font-variant-alternates:normal;font-feature-settings:normal;text-indent:0;text-align:start;text-decoration:none;text-decoration-line:none;text-decoration-style:solid;text-decoration-color:#000;letter-spacing:normal;word-spacing:normal;text-transform:none;writing-mode:lr-tb;direction:ltr;text-orientation:mixed;dominant-baseline:auto;baseline-shift:baseline;text-anchor:start;white-space:normal;shape-padding:0;clip-rule:nonzero;display:inline;overflow:visible;visibility:visible;opacity:1;isolation:auto;mix-blend-mode:normal;color-interpolation:sRGB;color-interpolation-filters:linearRGB;solid-color:#000;solid-opacity:1;vector-effect:none;fill:#000;fill-opacity:.21176471;fill-rule:nonzero;stroke:none;stroke-width:1;stroke-linecap:round;stroke-linejoin:round;stroke-miterlimit:4;stroke-dasharray:none;stroke-dashoffset:0;stroke-opacity:1;paint-order:fill markers stroke;color-rendering:auto;image-rendering:auto;shape-rendering:auto;text-rendering:auto;enable-background:accumulate"/><path id="rect15-3-7-9" d="M 2,51 C 1.4373514,51 1,50.562648 1,50 V 2.5 h 1 v 41.060547 5.53125 C 2,49.595433 2.4045667,50 2.9082031,50 H 23.091898 c 0.503636,0 1.079466,-0.43458 0.908203,-0.908203 V 43.560547 2.5 h 1 V 50 c 0,0.562648 -0.437351,1 -1,1 z" style="color:#000;font-style:normal;font-variant:normal;font-weight:400;font-stretch:normal;font-size:medium;line-height:normal;font-family:sans-serif;font-variant-ligatures:normal;font-variant-position:normal;font-variant-caps:normal;font-variant-numeric:normal;font-variant-alternates:normal;font-feature-settings:normal;text-indent:0;text-align:start;text-decoration:none;text-decoration-line:none;text-decoration-style:solid;text-decoration-color:#000;letter-spacing:normal;word-spacing:normal;text-transform:none;writing-mode:lr-tb;direction:ltr;text-orientation:mixed;dominant-baseline:auto;baseline-shift:baseline;text-anchor:start;white-space:normal;shape-padding:0;clip-rule:nonzero;display:inline;overflow:visible;visibility:visible;opacity:1;isolation:auto;mix-blend-mode:normal;color-interpolation:sRGB;color-interpolation-filters:linearRGB;solid-color:#000;solid-opacity:1;vector-effect:none;fill:#000;fill-opacity:.31764706;fill-rule:nonzero;stroke:none;stroke-width:1;stroke-linecap:round;stroke-linejoin:round;stroke-miterlimit:4;stroke-dasharray:none;stroke-dashoffset:0;stroke-opacity:1;paint-order:fill markers stroke;color-rendering:auto;image-rendering:auto;shape-rendering:auto;text-rendering:auto;enable-background:accumulate"/></svg>