<svg xmlns="http://www.w3.org/2000/svg" xmlns:svg="http://www.w3.org/2000/svg" xmlns:xlink="http://www.w3.org/1999/xlink" id="svg1272" width="20" height="20" version="1.1" viewBox="0 0 5.292 5.292"><defs id="defs1266"><linearGradient id="linearGradient1980" x1="9.315" x2="9.315" y1="19.048" y2="1.026" gradientUnits="userSpaceOnUse" spreadMethod="pad"><stop style="stop-color:#80766b;stop-opacity:1" id="stop1976" offset="0" stop-color="#888"/><stop id="stop1978" offset="1" stop-color="#bfbfbe" style="stop-color:#a89a8c;stop-opacity:1"/></linearGradient><linearGradient id="linearGradient1974" x1="9.315" x2="9.315" y1="19.048" y2="1.026" gradientUnits="userSpaceOnUse" spreadMethod="pad"><stop style="stop-color:#80766b;stop-opacity:1" id="stop1970" offset="0" stop-color="#888"/><stop id="stop1972" offset="1" stop-color="#bfbfbe" style="stop-color:#a89a8c;stop-opacity:1"/></linearGradient><linearGradient id="linearGradient841" x1="9.315" x2="9.315" y1="19.048" y2="1.026" gradientUnits="userSpaceOnUse" spreadMethod="pad"><stop style="stop-color:#80766b;stop-opacity:1" id="stop837" offset="0" stop-color="#888"/><stop style="stop-color:#a89a8c;stop-opacity:1" id="stop839" offset="1" stop-color="#bfbfbe"/></linearGradient><linearGradient id="a" x1="4.767" x2="4.767" y1="19.048" y2="1.026" gradientUnits="userSpaceOnUse"><stop id="stop2" offset="0" stop-color="#888"/><stop id="stop4" offset="1" stop-color="#bfbfbe"/></linearGradient><linearGradient id="a-9" x1="4.712" x2="4.712" y1="19.048" y2="1.026" gradientUnits="userSpaceOnUse"><stop id="stop2-1" offset="0" stop-color="#888"/><stop id="stop4-2" offset="1" stop-color="#bfbfbe"/></linearGradient><linearGradient id="linearGradient2187" x1="4.712" x2="4.712" y1="19.048" y2="1.026" gradientTransform="matrix(0.26458333,0,0,0.26458333,0,291.70833)" gradientUnits="userSpaceOnUse" xlink:href="#linearGradient1980"/><linearGradient id="linearGradient2189" x1="4.712" x2="4.712" y1="19.048" y2="1.026" gradientTransform="matrix(0.26458333,0,0,0.26458333,0,291.70833)" gradientUnits="userSpaceOnUse" xlink:href="#linearGradient1980"/></defs><metadata id="metadata1269"/><g id="layer1" transform="translate(0,-291.70833)"><path style="color:#000001;fill:url(#linearGradient2187);fill-opacity:1;stroke-width:.26458332" id="path9-3" d="m 2.1290756,292.17135 -1.58749998,0.79375 1.58749998,0.79375 v -0.59531 H 3.96875 c 0.1897962,0 0.3968749,0.21995 0.3968749,0.39687 v 1.23196 l 0.396875,0.30591 v -1.53789 c 0,-0.43516 -0.3585897,-0.79375 -0.7937499,-0.79375 H 2.1290756 v -0.59532 z"/><path style="color:#000001;fill:url(#linearGradient2189);fill-opacity:1;stroke-width:.26458332" id="path11-6" d="m 3.1625645,296.53698 1.5875,-0.79375 -1.5875,-0.79375 v 0.59531 H 1.3228902 c -0.1897962,0 -0.396875,-0.21996 -0.396875,-0.39688 v -1.23198 l -0.396875,-0.30591 v 1.53789 c 0,0.43516 0.35858979,0.79375 0.79375,0.79375 h 1.8396743 z"/></g></svg>