<svg xmlns="http://www.w3.org/2000/svg" xmlns:svg="http://www.w3.org/2000/svg" id="svg4" width="21" height="18" version="1.1"><metadata id="metadata10"/><g id="text838-3" aria-label="R" transform="translate(5.5,2)" style="font-style:normal;font-weight:400;font-size:40px;line-height:1.25;font-family:sans-serif;letter-spacing:0;word-spacing:0;fill:#f854e7;fill-opacity:1;stroke:none"><path style="font-style:normal;font-variant:normal;font-weight:600;font-stretch:normal;font-size:13.3333px;font-family:'Open Sans';-inkscape-font-specification:'Open Sans Semi-Bold';fill:#f854e7;fill-opacity:1" id="path845" d="m 3.5559856,7.4270722 h 1.0807265 c 0.7248245,0 1.2499968,-0.1345483 1.5755168,-0.4036448 0.32552,-0.2690966 0.48828,-0.6684012 0.48828,-1.1979137 0,-0.5381931 -0.1757808,-0.9244768 -0.5273424,-1.1588512 C 5.8216049,4.4322881 5.2919449,4.3006529 4.5846289,4.3151009 H 3.5559856 Z m 0,1.2890592 V 12 H 2 V 3 h 2.6887953 c 1.2282955,0 2.1375814,0.2300341 2.7278577,0.6901024 0.5902763,0.4600683 0.8854144,1.154511 0.8854144,2.0833281 0,1.1848929 -0.6163179,2.0290748 -1.8489537,2.5325457 L 9.141909,12 H 7.3710802 L 5.0924401,8.7161314 Z"/></g></svg>