<svg xmlns="http://www.w3.org/2000/svg" xmlns:svg="http://www.w3.org/2000/svg" xmlns:xlink="http://www.w3.org/1999/xlink" id="svg1272" width="36" height="20" version="1.1" viewBox="0 0 9.525 5.292"><defs id="defs1266"><linearGradient id="linearGradient1980" x1="9.315" x2="9.315" y1="19.048" y2="1.026" gradientUnits="userSpaceOnUse" spreadMethod="pad"><stop style="stop-color:#80766b;stop-opacity:1" id="stop1976" offset="0" stop-color="#888"/><stop id="stop1978" offset="1" stop-color="#bfbfbe" style="stop-color:#a89a8c;stop-opacity:1"/></linearGradient><linearGradient id="linearGradient1974" x1="9.315" x2="9.315" y1="19.048" y2="1.026" gradientUnits="userSpaceOnUse" spreadMethod="pad"><stop style="stop-color:#80766b;stop-opacity:1" id="stop1970" offset="0" stop-color="#888"/><stop id="stop1972" offset="1" stop-color="#bfbfbe" style="stop-color:#a89a8c;stop-opacity:1"/></linearGradient><linearGradient id="linearGradient841" x1="9.315" x2="9.315" y1="19.048" y2="1.026" gradientUnits="userSpaceOnUse" spreadMethod="pad"><stop style="stop-color:#80766b;stop-opacity:1" id="stop837" offset="0" stop-color="#888"/><stop style="stop-color:#a89a8c;stop-opacity:1" id="stop839" offset="1" stop-color="#bfbfbe"/></linearGradient><linearGradient id="a" x1="4.767" x2="4.767" y1="19.048" y2="1.026" gradientUnits="userSpaceOnUse"><stop id="stop2" offset="0" stop-color="#888"/><stop id="stop4" offset="1" stop-color="#bfbfbe"/></linearGradient><linearGradient id="linearGradient2045" x1="4.767" x2="4.767" y1="19.048" y2="1.026" gradientTransform="matrix(0.26458333,0,0,0.26458333,1.4130916e-8,291.70833)" gradientUnits="userSpaceOnUse" xlink:href="#linearGradient1980"/><linearGradient id="linearGradient2047" x1="4.767" x2="4.767" y1="19.048" y2="1.026" gradientTransform="matrix(0.26458333,0,0,0.26458333,1.4130916e-8,291.70833)" gradientUnits="userSpaceOnUse" xlink:href="#linearGradient1980"/><linearGradient id="linearGradient2049" x1="4.767" x2="4.767" y1="19.048" y2="1.026" gradientTransform="matrix(0.26458333,0,0,0.26458333,1.4130916e-8,291.70833)" gradientUnits="userSpaceOnUse" xlink:href="#linearGradient1980"/><linearGradient id="linearGradient2051" x1="4.767" x2="4.767" y1="19.048" y2="1.026" gradientTransform="matrix(0.26458333,0,0,0.26458333,1.4130916e-8,291.70833)" gradientUnits="userSpaceOnUse" xlink:href="#linearGradient1980"/></defs><metadata id="metadata1269"/><g id="layer1" transform="translate(0,-291.70833)"><path style="fill:url(#linearGradient2045);fill-opacity:1;stroke-width:.26458332" id="path9" d="m 6.8791666,292.30504 1.88e-5,1.58753 1.5875,-0.79378 z"/><path style="fill:url(#linearGradient2047);fill-opacity:1;stroke-width:.26458332" id="path11" d="m 6.8791666,296.415 1.88e-5,-1.5875 1.5874735,0.79378 z"/><path id="path13" d="m 6.8791666,292.88215 c -1.2530931,0 -1.9181762,0.8912 -2.6055373,1.45659 -0.6873345,0.56539 -1.4100704,1.09744 -2.9506333,1.09744 -0.2683404,-0.004 -0.2683404,0.40711 0,0.40327 1.6343577,0 2.4991219,-0.61055 3.2009292,-1.18774 0.7017279,-0.57718 1.2272697,-1.36628 2.3554001,-1.36628 0.2683405,0.004 0.2683405,-0.40711 0,-0.40328 z" dominant-baseline="auto" style="color:#000001;font-variant-ligatures:normal;font-variant-position:normal;font-variant-caps:normal;font-variant-numeric:normal;font-variant-alternates:normal;font-feature-settings:normal;text-indent:0;text-decoration:none;text-decoration-line:none;text-decoration-style:solid;text-decoration-color:#000001;text-transform:none;text-orientation:mixed;dominant-baseline:auto;white-space:normal;shape-padding:0;isolation:auto;mix-blend-mode:normal;solid-color:#000001;fill:url(#linearGradient2049);fill-opacity:1;stroke-width:.26458332;color-rendering:auto;image-rendering:auto;shape-rendering:auto"/><path id="path15" d="m 5.1257729,294.69336 c -0.098825,0.0818 -0.1940005,0.15985 -0.3028157,0.24904 -0.00324,0.003 -0.00708,0.005 -0.010335,0.008 0.564859,0.4567 1.057619,0.90747 2.0665546,0.90747 0.2683404,0.004 0.2683404,-0.40566 0,-0.40182 -0.8662194,0 -1.244891,-0.35423 -1.7533938,-0.76256 z m -3.8028562,-1.81417 c -0.2683669,-0.004 -0.2683669,0.40566 0,0.40182 1.2961937,0 2.0423187,0.47496 2.646627,0.93615 0.056057,-0.0448 0.1121542,-0.0894 0.1684655,-0.13551 0.048662,-0.0399 0.1028118,-0.082 0.152445,-0.12295 -0.6590506,-0.51083 -1.5319904,-1.0795 -2.9675666,-1.0795 z" dominant-baseline="auto" style="color:#000001;font-variant-ligatures:normal;font-variant-position:normal;font-variant-caps:normal;font-variant-numeric:normal;font-variant-alternates:normal;font-feature-settings:normal;text-indent:0;text-decoration:none;text-decoration-line:none;text-decoration-style:solid;text-decoration-color:#000001;text-transform:none;text-orientation:mixed;dominant-baseline:auto;white-space:normal;shape-padding:0;isolation:auto;mix-blend-mode:normal;solid-color:#000001;fill:url(#linearGradient2051);fill-opacity:1;stroke-width:.26458332;color-rendering:auto;image-rendering:auto;shape-rendering:auto"/></g></svg>