<svg xmlns="http://www.w3.org/2000/svg" xmlns:svg="http://www.w3.org/2000/svg" id="svg17" width="32" height="20" version="1.1"><metadata id="metadata21"/><defs id="defs7"><linearGradient id="a" x1="9.315" x2="9.315" y1="19.048" y2="1.026" gradientUnits="userSpaceOnUse"><stop id="stop2" offset="0" stop-color="#888"/><stop id="stop4" offset="1" stop-color="#bfbfbe"/></linearGradient></defs><g style="fill:#000001;fill-opacity:1" id="g15" fill="url(#a)"><rect id="rect9" width="8" height="6" x="1" y="7" rx="1" ry="1" style="paint-order:fill markers stroke;fill:#000001;fill-opacity:1"/><path id="path11" d="m13 7c-.554 0-1 .446-1 1h1zm1 0v1h1v-1zm2 0v1h1v-1zm2 0v1h2c0-.554-.446-1-1-1zm-6 2v1h1v-1zm7 0v1h1v-1zm-7 2v1c0 .554.446 1 1 1v-2zm7 0c0 .554-.446 1-1 1v1h1c.554 0 1-.446 1-1v-1zm-5 1v1h1v-1zm2 0v1h1v-1z" style="paint-order:fill markers stroke;fill:#000001;fill-opacity:1"/><path id="path13" d="m24 7c-.554 0-1 .446-1 1v4c0 .554.446 1 1 1h6c.554 0 1-.446 1-1v-4c0-.554-.446-1-1-1zm1 1h4c.554 0 1 .446 1 1v2c0 .554-.446 1-1 1h-4c-.554 0-1-.446-1-1v-2c0-.554.446-1 1-1z" style="paint-order:fill markers stroke;fill:#000001;fill-opacity:1"/></g></svg>