<svg xmlns="http://www.w3.org/2000/svg" xmlns:svg="http://www.w3.org/2000/svg" id="svg18" width="24" height="24" version="1.1"><metadata id="metadata24"/><g style="stroke-width:1.6;stroke-miterlimit:4;stroke-dasharray:none;stroke-linejoin:round" id="g8" fill="none" stroke="#000001" stroke-width="1.6"><path style="stroke-width:1.6;stroke-miterlimit:4;stroke-dasharray:none;stroke-linejoin:round" id="path2" d="m11 3h2v6h-2z" color="#000001"/><path style="stroke-width:1.6;stroke-miterlimit:4;stroke-dasharray:none;stroke-linejoin:round" id="path4" d="m20 5v13h-3l5e-4-1.5001 1.4995 1e-4v-10l-3.4999.000149.000125-1.5001z" color="#000001"/><path style="stroke-width:1.6;stroke-miterlimit:4;stroke-dasharray:none;stroke-linejoin:round" id="path6" d="m4 5v13h5v3l7-3.75-7-3.75 1e-4 2.9999-3.5001 1e-4v-10l3.5 1e-4v-1.5001z" color="#000001"/></g><g id="g16" fill="#918273"><path id="path10" d="m11 3h2v6h-2z" color="#000001"/><path id="path12" d="m20 5v13h-3l5e-4-1.5001 1.4995 1e-4v-10l-3.4999.000149.000125-1.5001z" color="#000001"/><path id="path14" d="m4 5v13h5v3l7-3.75-7-3.75 1e-4 2.9999-3.5001 1e-4v-10l3.5 1e-4v-1.5001z" color="#000001"/></g></svg>