<svg xmlns="http://www.w3.org/2000/svg" xmlns:svg="http://www.w3.org/2000/svg" id="svg17" width="18" height="18" version="1.1"><metadata id="metadata21"/><defs id="defs9"><linearGradient id="a" x1="2" x2="24" y1="12" y2="12" gradientTransform="matrix(.69565216 0 0 .69565216 -.04349915 -16.652173)" gradientUnits="userSpaceOnUse"><stop id="stop2" offset="0" stop-opacity=".005"/><stop id="stop4" offset=".5" stop-opacity="0"/><stop id="stop6" offset="1" stop-opacity=".475"/></linearGradient></defs><path style="color:#000;font-style:normal;font-variant:normal;font-weight:400;font-stretch:normal;font-size:medium;line-height:normal;font-family:sans-serif;font-variant-ligatures:normal;font-variant-position:normal;font-variant-caps:normal;font-variant-numeric:normal;font-variant-alternates:normal;font-feature-settings:normal;text-indent:0;text-align:start;text-decoration:none;text-decoration-line:none;text-decoration-style:solid;text-decoration-color:#000;letter-spacing:normal;word-spacing:normal;text-transform:none;writing-mode:lr-tb;direction:ltr;text-orientation:mixed;dominant-baseline:auto;baseline-shift:baseline;text-anchor:start;white-space:normal;shape-padding:0;clip-rule:nonzero;display:inline;overflow:visible;visibility:visible;opacity:1;isolation:auto;mix-blend-mode:normal;color-interpolation:sRGB;color-interpolation-filters:linearRGB;solid-color:#000;solid-opacity:1;vector-effect:none;fill:#000001;fill-opacity:1;fill-rule:nonzero;stroke:none;stroke-width:1;stroke-linecap:round;stroke-linejoin:round;stroke-miterlimit:4;stroke-dasharray:none;stroke-dashoffset:0;stroke-opacity:1;paint-order:fill markers stroke;color-rendering:auto;image-rendering:auto;shape-rendering:auto;text-rendering:auto;enable-background:accumulate" id="rect15-9" d="M 0.8007812,0 C 0.3662299,0 0,0.36623 0,0.8007812 V 17.199219 C 0,17.63377 0.36623,18 0.8007812,18 H 17.19932 c 0.434551,0 0.800781,-0.36623 0.800781,-0.800781 V 0.8007812 C 18.000101,0.3662299 17.633871,0 17.19932,0 Z M 2,1 h 14.000101 c 0.56265,0 1,0.4373514 1,1 v 14 c 0,0.562649 -0.437351,1 -1,1 H 2 C 1.4373514,17 1,16.562649 1,16 V 2 C 1,1.4373514 1.4373514,1 2,1 Z"/><path style="color:#000;font-style:normal;font-variant:normal;font-weight:400;font-stretch:normal;font-size:medium;line-height:normal;font-family:sans-serif;font-variant-ligatures:normal;font-variant-position:normal;font-variant-caps:normal;font-variant-numeric:normal;font-variant-alternates:normal;font-feature-settings:normal;text-indent:0;text-align:start;text-decoration:none;text-decoration-line:none;text-decoration-style:solid;text-decoration-color:#000;letter-spacing:normal;word-spacing:normal;text-transform:none;writing-mode:lr-tb;direction:ltr;text-orientation:mixed;dominant-baseline:auto;baseline-shift:baseline;text-anchor:start;white-space:normal;shape-padding:0;clip-rule:nonzero;display:inline;overflow:visible;visibility:visible;opacity:1;isolation:auto;mix-blend-mode:normal;color-interpolation:sRGB;color-interpolation-filters:linearRGB;solid-color:#000;solid-opacity:1;vector-effect:none;fill:#dcdcdc;fill-opacity:.07058824;fill-rule:nonzero;stroke:none;stroke-width:1;stroke-linecap:round;stroke-linejoin:round;stroke-miterlimit:4;stroke-dasharray:none;stroke-dashoffset:0;stroke-opacity:1;paint-order:fill markers stroke;color-rendering:auto;image-rendering:auto;shape-rendering:auto;text-rendering:auto;enable-background:accumulate" id="rect15-3-7-1" d="M 2,1 C 1.4373514,1 1,1.437352 1,2 V 2.5 H 2.1074219 C 2.2574996,2.2065045 2.5543285,2 2.9082031,2 H 15.091898 c 0.353875,0 0.650703,0.2065045 0.800782,0.5 h 1.107421 V 2 c 0,-0.562648 -0.43735,-1 -1,-1 z"/><path style="color:#000;font-style:normal;font-variant:normal;font-weight:400;font-stretch:normal;font-size:medium;line-height:normal;font-family:sans-serif;font-variant-ligatures:normal;font-variant-position:normal;font-variant-caps:normal;font-variant-numeric:normal;font-variant-alternates:normal;font-feature-settings:normal;text-indent:0;text-align:start;text-decoration:none;text-decoration-line:none;text-decoration-style:solid;text-decoration-color:#000;letter-spacing:normal;word-spacing:normal;text-transform:none;writing-mode:lr-tb;direction:ltr;text-orientation:mixed;dominant-baseline:auto;baseline-shift:baseline;text-anchor:start;white-space:normal;shape-padding:0;clip-rule:nonzero;display:inline;overflow:visible;visibility:visible;opacity:1;isolation:auto;mix-blend-mode:normal;color-interpolation:sRGB;color-interpolation-filters:linearRGB;solid-color:#000;solid-opacity:1;vector-effect:none;fill:#d1d1d1;fill-opacity:.01960784;fill-rule:nonzero;stroke:none;stroke-width:1;stroke-linecap:round;stroke-linejoin:round;stroke-miterlimit:4;stroke-dasharray:none;stroke-dashoffset:0;stroke-opacity:1;paint-order:fill markers stroke;color-rendering:auto;image-rendering:auto;shape-rendering:auto;text-rendering:auto;enable-background:accumulate" id="rect15-3-7-9" d="M 2,17 C 1.4373514,17 1,16.562648 1,16 V 2.5 h 1 v 7.060547 5.53125 C 2,15.595433 2.4045667,16 2.9082031,16 H 15.091898 c 0.503636,0 0.908203,-0.404567 0.908203,-0.908203 V 9.560547 2.5 h 1 V 16 c 0,0.562648 -0.437351,1 -1,1 z"/></svg>