<svg xmlns="http://www.w3.org/2000/svg" xmlns:svg="http://www.w3.org/2000/svg" id="svg17" width="18" height="18" version="1.1"><metadata id="metadata21"/><defs id="defs9"><linearGradient id="a" x1=".5" x2="24.406" y1="12" y2="12" gradientTransform="matrix(-.5652174 0 0 .26530613 -1.6521574 -8.4693876)" gradientUnits="userSpaceOnUse"><stop id="stop2" offset="0" stop-opacity=".475"/><stop id="stop4" offset=".507" stop-opacity="0"/><stop id="stop6" offset="1" stop-opacity=".005"/></linearGradient></defs><path style="color:#000;font-style:normal;font-variant:normal;font-weight:400;font-stretch:normal;font-size:medium;line-height:normal;font-family:sans-serif;font-variant-ligatures:normal;font-variant-position:normal;font-variant-caps:normal;font-variant-numeric:normal;font-variant-alternates:normal;font-feature-settings:normal;text-indent:0;text-align:start;text-decoration:none;text-decoration-line:none;text-decoration-style:solid;text-decoration-color:#000;letter-spacing:normal;word-spacing:normal;text-transform:none;writing-mode:lr-tb;direction:ltr;text-orientation:mixed;dominant-baseline:auto;baseline-shift:baseline;text-anchor:start;white-space:normal;shape-padding:0;clip-rule:nonzero;display:inline;overflow:visible;visibility:visible;opacity:1;isolation:auto;mix-blend-mode:normal;color-interpolation:sRGB;color-interpolation-filters:linearRGB;solid-color:#000;solid-opacity:1;vector-effect:none;fill:#000001;fill-opacity:1;fill-rule:nonzero;stroke:none;stroke-width:1;stroke-linecap:round;stroke-linejoin:round;stroke-miterlimit:4;stroke-dasharray:none;stroke-dashoffset:0;stroke-opacity:1;paint-order:fill markers stroke;color-rendering:auto;image-rendering:auto;shape-rendering:auto;text-rendering:auto;enable-background:accumulate" id="rect15-9" d="M 1.8007812,1 C 1.3662299,1 1,1.36623 1,1.8007812 V 16.199219 C 1,16.63377 1.36623,17 1.8007812,17 H 16.19932 c 0.434551,0 0.800781,-0.36623 0.800781,-0.800781 V 1.8007812 C 17.000101,1.3662299 16.633871,1 16.19932,1 Z M 3,2 h 12.000102 c 0.562649,0 0.999999,0.4373514 0.999999,1 v 12 c 0,0.562649 -0.43735,1 -0.999999,1 H 3 C 2.4373514,16 2,15.562649 2,15 V 3 C 2,2.4373514 2.4373514,2 3,2 Z"/><path style="color:#000;font-style:normal;font-variant:normal;font-weight:400;font-stretch:normal;font-size:medium;line-height:normal;font-family:sans-serif;font-variant-ligatures:normal;font-variant-position:normal;font-variant-caps:normal;font-variant-numeric:normal;font-variant-alternates:normal;font-feature-settings:normal;text-indent:0;text-align:start;text-decoration:none;text-decoration-line:none;text-decoration-style:solid;text-decoration-color:#000;letter-spacing:normal;word-spacing:normal;text-transform:none;writing-mode:lr-tb;direction:ltr;text-orientation:mixed;dominant-baseline:auto;baseline-shift:baseline;text-anchor:start;white-space:normal;shape-padding:0;clip-rule:nonzero;display:inline;overflow:visible;visibility:visible;opacity:1;isolation:auto;mix-blend-mode:normal;color-interpolation:sRGB;color-interpolation-filters:linearRGB;solid-color:#000;solid-opacity:1;vector-effect:none;fill:#000;fill-opacity:.21176471;fill-rule:nonzero;stroke:none;stroke-width:1;stroke-linecap:round;stroke-linejoin:round;stroke-miterlimit:4;stroke-dasharray:none;stroke-dashoffset:0;stroke-opacity:1;paint-order:fill markers stroke;color-rendering:auto;image-rendering:auto;shape-rendering:auto;text-rendering:auto;enable-background:accumulate" id="rect15-3-7-1" d="M 3,2 C 2.4373514,2 2,3.562648 2,3 V 3.5 H 3.1074219 C 3.2574996,3.2065045 3.5543285,3 3.9082031,3 H 14.091898 c 0.353875,0 0.650703,0.2065045 0.800782,0.5 h 1.107421 V 3 c 0,-0.562648 -0.43735,-1 -0.999999,-1 z"/><path style="color:#000;font-style:normal;font-variant:normal;font-weight:400;font-stretch:normal;font-size:medium;line-height:normal;font-family:sans-serif;font-variant-ligatures:normal;font-variant-position:normal;font-variant-caps:normal;font-variant-numeric:normal;font-variant-alternates:normal;font-feature-settings:normal;text-indent:0;text-align:start;text-decoration:none;text-decoration-line:none;text-decoration-style:solid;text-decoration-color:#000;letter-spacing:normal;word-spacing:normal;text-transform:none;writing-mode:lr-tb;direction:ltr;text-orientation:mixed;dominant-baseline:auto;baseline-shift:baseline;text-anchor:start;white-space:normal;shape-padding:0;clip-rule:nonzero;display:inline;overflow:visible;visibility:visible;opacity:1;isolation:auto;mix-blend-mode:normal;color-interpolation:sRGB;color-interpolation-filters:linearRGB;solid-color:#000;solid-opacity:1;vector-effect:none;fill:#000;fill-opacity:.31764706;fill-rule:nonzero;stroke:none;stroke-width:1;stroke-linecap:round;stroke-linejoin:round;stroke-miterlimit:4;stroke-dasharray:none;stroke-dashoffset:0;stroke-opacity:1;paint-order:fill markers stroke;color-rendering:auto;image-rendering:auto;shape-rendering:auto;text-rendering:auto;enable-background:accumulate" id="rect15-3-7-9" d="M 3,16 C 2.4373514,16 2,15.562648 2,15 V 3.5 h 1 v 5.060547 5.53125 C 3,14.595433 3.4045667,15 3.9082031,15 H 14.091898 c 0.503636,0 0.908204,-0.404567 0.908204,-0.908203 V 8.560547 3.5 h 0.999999 V 15 c 0,0.562648 -0.43735,1 -0.999999,1 z"/></svg>