<svg xmlns="http://www.w3.org/2000/svg" xmlns:svg="http://www.w3.org/2000/svg" id="svg10" width="19" height="19" version="1.1"><metadata id="metadata16"/><title id="title2">Mixxx 1.12+ iconset</title><g style="fill:#938271;fill-opacity:1" id="g8" transform="translate(0,-13)"><g style="fill:#938271;fill-opacity:1" id="g6" transform="matrix(.4151 0 0 .4151 -1.6604 19.547)"><path style="fill:#938271;fill-opacity:1" id="path4" fill="#b3b3b3" stroke-width="0" d="m26.886-7.3406c-7.2888 0-14.454 7.1656-14.454 14.454 0 7.2888 7.1656 14.454 14.454 14.454 7.2888 0 14.454-7.1656 14.454-14.454 0-7.2888-7.1656-14.454-14.454-14.454zm-5.8398 6.5497c.52783 0 1.0474.20857 1.4519.61302l4.3879 4.3879 4.3879-4.3879c.8089-.8089 2.0949-.8089 2.9038 0 .8089.8089.8089 2.0949 0 2.9038l-4.3879 4.3879 4.3879 4.3879c.8089.8089.8089 2.0949 0 2.9038-.8089.8089-2.0949.8089-2.9038 0l-4.3879-4.3879-4.3879 4.3879c-.8089.8089-2.0949.8089-2.9038 0-.8089-.8089-.8089-2.0949 0-2.9038l4.3879-4.3879-4.3879-4.3879c-.8089-.8089-.8089-2.0949 0-2.9038.40445-.40445.92406-.61302 1.4519-.61302z" color="#000001"/></g></g></svg>