<svg xmlns="http://www.w3.org/2000/svg" xmlns:svg="http://www.w3.org/2000/svg" id="svg12" width="22" height="22" version="1.1"><metadata id="metadata18"/><g style="stroke-width:1.6;stroke-miterlimit:4;stroke-dasharray:none;stroke-linejoin:round" id="g6" fill="none" stroke="#000001" stroke-width="1.6"><path style="stroke-width:1.6;stroke-miterlimit:4;stroke-dasharray:none;stroke-linejoin:round" id="path2" d="m13.730156 7.0804229c1.509333.923162 2.519954 2.5811933 2.519954 4.4799511 0 2.900587-2.349347 5.250022-5.250022 5.250022s-5.250022-2.349435-5.250022-5.250022c0-1.8987578 1.0106213-3.5567891 2.5199542-4.4799511l-1.2643765-1.2643765c-1.8156164 1.2643765-3.0056437 3.3642797-3.0056437 5.7443276 0 3.867479 3.1325213 6.999912 7 6.999912 3.867479 0 7-3.132433 7-6.999912 0-2.3800479-1.190027-4.4799511-3.005644-5.7443276z"/><path style="stroke-width:1.6;stroke-miterlimit:4;stroke-dasharray:none;stroke-linejoin:round" id="path4" d="m11.999999 3h-1.9999998v6.0000003h1.9999998z"/></g><g style="fill:#918273;fill-opacity:1" id="g830"><path style="fill:#918273;fill-opacity:1" id="path8" fill="#918273" d="m13.730156 7.080423c1.509333.923162 2.519954 2.5811933 2.519954 4.479951 0 2.900587-2.349347 5.250022-5.250022 5.250022s-5.250022-2.349435-5.250022-5.250022c0-1.8987577 1.0106213-3.556789 2.5199542-4.479951l-1.2643765-1.2643765c-1.8156164 1.2643765-3.0056437 3.3642797-3.0056437 5.7443275 0 3.867479 3.1325213 6.999912 7 6.999912 3.867479 0 7-3.132433 7-6.999912 0-2.3800478-1.190027-4.479951-3.005644-5.7443275z"/><path style="fill:#918273;fill-opacity:1" id="path10" fill="#918273" stroke-width="1" d="m11.999999 3.0000001h-1.9999998v6.0000003h1.9999998z"/></g></svg>