<svg xmlns="http://www.w3.org/2000/svg" xmlns:svg="http://www.w3.org/2000/svg" id="svg14" width="24" height="24" version="1.1"><metadata id="metadata20"/><g style="stroke-width:1.6;stroke-miterlimit:4;stroke-dasharray:none;stroke-linejoin:round" id="g6" fill="none" stroke="#000001" stroke-width="1.6"><path style="stroke-width:1.6;stroke-miterlimit:4;stroke-dasharray:none;stroke-linejoin:round" id="path2" d="m20 18v-12h-5v-3l-7 3.75 7 3.75-1e-4-2.9999 3.5001-1e-4v9l-1.5-1e-4v1.5001z" color="#000001"/><path style="stroke-width:1.6;stroke-miterlimit:4;stroke-dasharray:none;stroke-linejoin:round" id="path4" d="m4 6v12h5v3l7-3.75-7-3.75 1e-4 2.9999-3.5001 1e-4v-9l1.5 1e-4v-1.5001z" color="#000001"/></g><g id="g12" fill="#918273"><path id="path8" d="m20 18v-12h-5v-3l-7 3.75 7 3.75-1e-4-2.9999 3.5001-1e-4v9l-1.5-1e-4v1.5001z" color="#000001"/><path id="path10" d="m4 6v12h5v3l7-3.75-7-3.75 1e-4 2.9999-3.5001 1e-4v-9l1.5 1e-4v-1.5001z" color="#000001"/></g></svg>